<?xml version="1.0" encoding="utf-8"?>
<!-- Generator: Adobe Illustrator 19.0.1, SVG Export Plug-In . SVG Version: 6.00 Build 0)  -->
<svg version="1.1" id="Слой_1" xmlns="http://www.w3.org/2000/svg" xmlns:xlink="http://www.w3.org/1999/xlink" x="0px" y="0px"
	 viewBox="0 0 60 50" fill="#eae4c4" style="enable-background:new 0 0 60 50;" xml:space="preserve">
<g>
	<g>
		<path d="M8.5,23.5H5.8c-0.7,0-1.3-0.6-1.3-1.3v-5.4c0-0.6,0.4-1.1,1-1.3V15c-0.6-0.1-1-0.7-1-1.3c0-0.8,0.6-1.4,1.3-1.4h2.7
			c0.7,0,1.3,0.6,1.3,1.3v0c0,0.6-0.4,1.1-1,1.3v0.5c0.6,0.1,1,0.7,1,1.3v5.4C9.9,22.9,9.3,23.5,8.5,23.5z M5.8,12.8
			c-0.4,0-0.8,0.4-0.8,0.8c0,0.5,0.3,0.8,0.8,0.8l0.2,0V16l-0.2,0C5.4,16,5,16.4,5,16.8v5.4C5,22.6,5.4,23,5.8,23h2.7
			c0.4,0,0.8-0.4,0.8-0.8v-5.4C9.3,16.4,9,16,8.6,16l-0.2,0v-1.5l0.2,0c0.4,0,0.8-0.4,0.8-0.8v0c0-0.4-0.4-0.8-0.8-0.8H5.8z"/>
		<path d="M14.8,2.3c0,0-1.4,1.5-4,1.7C8.2,4.2,7.3,5.4,7.2,7.3c0,0-0.1,0.8,0.4,1.7c-0.3,0.3-0.6,0.9-0.7,1.7
			c-0.2-0.3-0.4-0.5-0.6-0.6c0.3-0.6,0.2-1.1,0.2-1.1c0-1.5-0.8-2.5-2.9-2.6C1.6,6.2,0.6,4.9,0.6,4.9C-0.2,7.1,0,8.4,0.6,9.6
			c0.5,1,2.5,2.7,4.5,1.6c0.2-0.1,0.4-0.2,0.5-0.3c0.3,0.3,1,1,1,1.6c0,0.1,0,0.1,0,0.2l0,0c0,0.6,0,9.4,0,9.4c0,0,0,0.4,0.5,0.4
			c0.5,0,0.6-0.4,0.6-0.4c0,0,0-9.3,0.1-10.2c0.1-1.3,0.4-1.9,0.6-2c0.2,0.1,0.4,0.3,0.6,0.4c2.5,1.3,5-0.8,5.7-2
			C15.5,6.7,15.8,5,14.8,2.3z"/>
	</g>
	<g>
		<path d="M30.9,23.5h-2.7c-0.7,0-1.3-0.6-1.3-1.3v-5.4c0-0.6,0.4-1.1,1-1.3V15c-0.6-0.1-1-0.7-1-1.3c0-0.8,0.6-1.4,1.3-1.4h2.7
			c0.7,0,1.3,0.6,1.3,1.3v0c0,0.6-0.4,1.1-1,1.3v0.5c0.6,0.1,1,0.7,1,1.3v5.4C32.2,22.9,31.6,23.5,30.9,23.5z M28.2,12.9
			c-0.4,0-0.8,0.4-0.8,0.8c0,0.5,0.3,0.8,0.8,0.8l0.2,0V16l-0.2,0c-0.4,0-0.8,0.4-0.8,0.8v5.4c0,0.4,0.4,0.8,0.8,0.8h2.7
			c0.4,0,0.8-0.4,0.8-0.8v-5.4c0-0.4-0.3-0.8-0.8-0.8l-0.2,0v-1.5l0.2,0c0.4,0,0.8-0.4,0.8-0.8v0c0-0.4-0.4-0.8-0.8-0.8H28.2z"/>
		<g>
			<path d="M37.2,2.3c0,0-1.4,1.5-4,1.7c-2.6,0.2-3.6,1.4-3.6,3.3c0,0-0.1,0.8,0.4,1.7c-0.3,0.3-0.6,0.9-0.7,1.7
				c-0.2-0.3-0.4-0.5-0.6-0.6C29.1,9.5,29,8.9,29,8.9c0-1.5-0.8-2.5-2.9-2.6C24,6.2,22.9,5,22.9,5c-0.8,2.2-0.5,3.5,0.1,4.7
				c0.5,1,2.5,2.7,4.5,1.6c0.2-0.1,0.4-0.2,0.5-0.3c0.3,0.3,1,1,1,1.6c0,0.1,0,0.1,0,0.2h0c0,0.6,0,8.4,0,8.4c0,0,0,0.4,0.5,0.4
				c0.5,0,0.6-0.4,0.6-0.4c0,0,0-8.3,0.1-9.2c0.1-1.3,0.4-1.9,0.6-2c0.2,0.1,0.4,0.3,0.6,0.4c2.5,1.3,5-0.8,5.7-2
				C37.9,6.7,38.2,5.1,37.2,2.3z"/>
			<path d="M30,19c0.1,0.1,0.2,0.2,0.3,0.3c0.1,0.2,0.1,0.2,0.1,0.4c0,0.5,0,1,0.1,1.4c-0.1-0.6-0.1-1.1,0-1.6c0.9,1,0,1.3-0.1,2.5
				c0.1-0.9,0.6-0.7,0.7-1.6c0.5,1.4-0.2,1,0,2.4c-0.1-1.4,0.6-0.8,0.4-2.2c-0.1-0.3-0.2-0.7-0.3-1c-0.1-0.2-0.2-0.3-0.3-0.5
				c0-0.1-0.1-0.1-0.1-0.2l-0.2-0.2c-0.3-0.4-0.7-0.7-1-1.1"/>
			<path d="M29.5,18.9c-0.1,0.2-0.2,0.3-0.4,0.4c-0.6,0.6-1,0.6-1.4,1.3c-0.4,0.6,0,0.8,0,1.5c0.1-0.6-0.1-0.8,0.1-1.2
				c0.3-0.7,0.6-0.5,1.1-1c-0.6,1-0.9,1.1-0.9,2.3c0-0.9,0.1-0.8,0.6-1.5c-0.1,0.8,0.5,1.2,0.7,2c-0.2-0.8-0.7-1.4-0.5-2.2
				c0.2-0.5,0.6-1,0.9-1.4"/>
		</g>
	</g>
	<g>
		<path d="M51.8,23.5h-2.7c-0.7,0-1.3-0.6-1.3-1.3v-5.4c0-0.6,0.4-1.1,1-1.3V15c-0.6-0.1-1-0.7-1-1.3c0-0.8,0.6-1.4,1.3-1.4h2.7
			c0.7,0,1.3,0.6,1.3,1.3v0c0,0.6-0.4,1.1-1,1.3v0.5c0.6,0.1,1,0.7,1,1.3v5.4C53.1,22.9,52.5,23.5,51.8,23.5z M49.1,12.9
			c-0.4,0-0.8,0.4-0.8,0.8c0,0.5,0.3,0.8,0.8,0.8l0.2,0V16l-0.2,0c-0.4,0-0.8,0.4-0.8,0.8v5.4c0,0.4,0.4,0.8,0.8,0.8h2.7
			c0.4,0,0.8-0.4,0.8-0.8v-5.4c0-0.4-0.3-0.8-0.8-0.8l-0.2,0v-1.5l0.2,0c0.4,0,0.8-0.4,0.8-0.8v0c0-0.4-0.4-0.8-0.8-0.8H49.1z"/>
		<g>
			<path d="M58.1,2.3c0,0-1.4,1.5-4,1.7c-2.6,0.2-3.6,1.4-3.6,3.3c0,0-0.1,0.8,0.4,1.7c-0.3,0.3-0.6,0.9-0.7,1.7
				c-0.2-0.3-0.4-0.5-0.6-0.6c0.3-0.6,0.2-1.1,0.2-1.1c0-1.5-0.8-2.5-2.9-2.6C44.9,6.2,43.8,5,43.8,5c-0.8,2.2-0.5,3.5,0.1,4.7
				c0.5,1,2.5,2.7,4.5,1.6c0.2-0.1,0.4-0.2,0.5-0.3c0.3,0.3,1,1,1,1.6c0,0.1,0,0.1,0,0.2h0c0,0.6,0,8.4,0,8.4c0,0,0,0.4,0.5,0.4
				c0.5,0,0.6-0.4,0.6-0.4c0,0,0-8.3,0.1-9.2c0.1-1.3,0.4-1.9,0.6-2c0.2,0.1,0.4,0.3,0.6,0.4c2.5,1.3,5-0.8,5.7-2
				C58.8,6.7,59.1,5.1,58.1,2.3z"/>
			<path d="M50.9,19c0.1,0.1,0.2,0.2,0.3,0.3c0.1,0.2,0.1,0.2,0.1,0.4c0,0.5,0,1,0.1,1.4c-0.1-0.6-0.1-1.1,0-1.6
				c0.9,1,0,1.3-0.1,2.5c0.1-0.9,0.6-0.7,0.7-1.6c0.5,1.4-0.2,1,0,2.4c-0.1-1.4,0.6-0.8,0.4-2.2c-0.1-0.3-0.2-0.7-0.3-1
				c-0.1-0.2-0.2-0.3-0.3-0.5c0-0.1-0.1-0.1-0.1-0.2l-0.2-0.2c-0.3-0.4-0.7-0.7-1-1.1"/>
			<path d="M50.4,18.9c-0.1,0.2-0.2,0.3-0.4,0.4c-0.6,0.6-1,0.6-1.4,1.3c-0.4,0.6,0,0.8,0,1.5c0.1-0.6-0.1-0.8,0.1-1.2
				c0.3-0.7,0.6-0.5,1.1-1c-0.6,1-0.9,1.1-0.9,2.3c0-0.9,0.1-0.8,0.6-1.5c-0.1,0.8,0.5,1.2,0.7,2c-0.2-0.8-0.7-1.4-0.5-2.2
				c0.2-0.5,0.6-1,0.9-1.4"/>
		</g>
	</g>
	<path d="M42.6,18.5V19h-8.5c0,0-0.2,0-0.2,0.2c0,0.2,0.2,0.2,0.2,0.2h8.5v0.5c0,0.2,0.1,0.3,0.3,0.3c0,0,1.7-0.6,1.7-1
		c0-0.4-1.7-1-1.7-1C42.7,18.2,42.6,18.3,42.6,18.5z"/>
	<g>
		<path d="M42.6,39.5v0.5h-8.5c0,0-0.2,0-0.2,0.2s0.2,0.2,0.2,0.2h8.5V41c0,0.2,0.1,0.3,0.3,0.3c0,0,1.7-0.6,1.7-1s-1.7-1-1.7-1
			C42.7,39.2,42.6,39.4,42.6,39.5z"/>
		<path d="M34.2,40.3V21.7c0,0,0-0.2-0.2-0.2c-0.2,0-0.2,0.2-0.2,0.2v18.6c0,0,0,0.2,0.2,0.2C34.2,40.5,34.2,40.3,34.2,40.3z"/>
	</g>
	<path d="M22.1,18.5V19h-8.5c0,0-0.2,0-0.2,0.2c0,0.2,0.2,0.2,0.2,0.2h8.5v0.5c0,0.2,0.1,0.3,0.3,0.3c0,0,1.7-0.6,1.7-1
		c0-0.4-1.7-1-1.7-1C22.2,18.2,22.1,18.3,22.1,18.5z"/>
	<g>
		<path d="M4.8,27.2L5.3,27c0.1,0.3,0.4,0.5,0.7,0.5c0.4,0,0.6-0.2,0.6-0.6c0-0.4-0.3-0.6-0.7-0.6c-0.2,0-0.4,0-0.5,0.1l0-0.1l0.8-1
			H5v-0.5h2.2v0l-0.9,1.1c0.5,0,0.9,0.4,0.9,1C7.3,27.5,6.9,28,6,28C5.4,28,4.9,27.6,4.8,27.2z"/>
		<path d="M7.7,26.4c0-0.9,0.8-1.6,1.7-1.6c0.9,0,1.7,0.7,1.7,1.6c0,0.9-0.8,1.6-1.7,1.6C8.4,28,7.7,27.3,7.7,26.4z M10.3,26.4
			c0-0.6-0.4-1.1-1-1.1c-0.6,0-1,0.4-1,1.1c0,0.6,0.4,1.1,1,1.1C9.9,27.5,10.3,27,10.3,26.4z"/>
		<path d="M12.5,26.4h1.1V27h-1.1V26.4z"/>
		<path d="M15,26.9c0-0.3,0.1-0.7,0.4-1l0.8-1.1H17l-0.8,1.1c0.1,0,0.1,0,0.2,0c0.6,0,1.1,0.4,1.1,1.1c0,0.7-0.6,1.1-1.2,1.1
			C15.6,28,15,27.6,15,26.9z M16.8,26.9c0-0.3-0.2-0.6-0.6-0.6c-0.4,0-0.6,0.2-0.6,0.6c0,0.3,0.2,0.6,0.6,0.6
			C16.6,27.5,16.8,27.2,16.8,26.9z"/>
		<path d="M17.8,26.4c0-0.9,0.8-1.6,1.7-1.6c0.9,0,1.7,0.7,1.7,1.6c0,0.9-0.8,1.6-1.7,1.6C18.6,28,17.8,27.3,17.8,26.4z M20.5,26.4
			c0-0.6-0.4-1.1-1-1.1c-0.6,0-1,0.4-1,1.1c0,0.6,0.4,1.1,1,1.1C20.1,27.5,20.5,27,20.5,26.4z"/>
		<path d="M22.6,26.9c0-0.6,0.4-1.1,1-1.1c0.3,0,0.5,0.1,0.6,0.3v-2.4h0.6V28h-0.6v-0.2c-0.1,0.2-0.3,0.3-0.6,0.3
			C23,28,22.6,27.6,22.6,26.9z M24.2,26.9c0-0.3-0.2-0.6-0.5-0.6c-0.3,0-0.5,0.2-0.5,0.6c0,0.3,0.2,0.6,0.5,0.6
			C24,27.5,24.2,27.3,24.2,26.9z"/>
		<path d="M26.1,26.4c-0.2,0-0.4,0.1-0.5,0.2l-0.4-0.3c0.2-0.3,0.5-0.4,0.9-0.4c0.6,0,0.9,0.3,0.9,0.9V28h-0.6v-0.2
			c-0.1,0.2-0.3,0.2-0.6,0.2c-0.4,0-0.8-0.2-0.8-0.7c0-0.4,0.4-0.6,0.8-0.6h0.5C26.5,26.4,26.3,26.4,26.1,26.4z M26,27.1
			c-0.2,0-0.2,0.1-0.2,0.2c0,0.1,0.1,0.2,0.3,0.2c0.3,0,0.5-0.1,0.5-0.3v-0.1H26z"/>
		<path d="M27.3,25.9h0.7l0.5,1.2l0.5-1.2h0.6l-1.4,3.3h-0.6l0.6-1.5L27.3,25.9z"/>
		<path d="M29.6,27.6l0.4-0.3c0.1,0.2,0.3,0.3,0.5,0.3c0.2,0,0.3-0.1,0.3-0.1c0-0.1-0.1-0.1-0.4-0.2c-0.4-0.1-0.7-0.3-0.7-0.7
			c0-0.4,0.3-0.6,0.8-0.6c0.3,0,0.6,0.1,0.8,0.3l-0.3,0.4c-0.1-0.1-0.3-0.2-0.4-0.2c-0.2,0-0.2,0.1-0.2,0.1c0,0.1,0.1,0.1,0.4,0.2
			c0.5,0.1,0.7,0.3,0.7,0.7c0,0.4-0.3,0.7-0.9,0.7C30.1,28,29.8,27.9,29.6,27.6z"/>
	</g>
	<g>
		<g>
			<path d="M58.3,25.8c0,0-1.4,1.5-4,1.7c-2.6,0.2-3.6,1.4-3.6,3.3c0,0-0.1,0.8,0.4,1.7c-0.3,0.3-0.6,0.9-0.7,1.7
				c-0.2-0.3-0.4-0.5-0.6-0.6c0.3-0.6,0.2-1.1,0.2-1.1c0-1.5-0.8-2.5-2.9-2.6c-2.1-0.1-3.2-1.4-3.2-1.4c-0.8,2.2-0.5,3.5,0.1,4.7
				c0.5,1,2.5,2.7,4.5,1.6c0.2-0.1,0.4-0.2,0.5-0.3c0.3,0.3,1,1,1,1.6c0,0.1,0,0.1,0,0.2l0,0c0,0.6,0,8.4,0,8.4c0,0,0,0.4,0.5,0.4
				c0.5,0,0.6-0.4,0.6-0.4c0,0,0-8.3,0.1-9.2c0.1-1.3,0.4-1.9,0.6-2c0.2,0.1,0.4,0.3,0.6,0.4c2.5,1.3,5-0.8,5.7-2
				C59,30.2,59.3,28.5,58.3,25.8z"/>
			<path d="M51.1,42.5c0.1,0.1,0.2,0.2,0.3,0.3c0.1,0.2,0.1,0.2,0.1,0.4c0,0.5,0,1,0.1,1.4c-0.1-0.6-0.1-1.1,0-1.6
				c0.9,1,0,1.3-0.1,2.5c0.1-0.9,0.6-0.7,0.7-1.6c0.5,1.4-0.2,1,0,2.4c-0.1-1.4,0.6-0.8,0.4-2.2c-0.1-0.3-0.2-0.7-0.3-1
				c-0.1-0.2-0.2-0.3-0.3-0.5c0-0.1-0.1-0.1-0.1-0.2l-0.2-0.2c-0.3-0.4-0.7-0.7-1-1.1"/>
			<path d="M50.6,42.4c-0.1,0.2-0.2,0.3-0.4,0.4c-0.6,0.6-1,0.6-1.4,1.3c-0.4,0.6,0,0.8,0,1.5c0.1-0.6-0.1-0.8,0.1-1.2
				c0.3-0.7,0.6-0.5,1.1-1c-0.6,1-0.9,1.1-0.9,2.3c0-0.9,0.1-0.8,0.6-1.5c-0.1,0.8,0.5,1.2,0.7,2c-0.2-0.8-0.7-1.4-0.5-2.2
				c0.2-0.5,0.6-1,0.9-1.4"/>
		</g>
		<path d="M53.6,46.9h-5.2c-0.5,0-0.9-0.3-0.9-0.9l-0.7-4.7c-0.4-0.1-0.6-0.5-0.6-0.9v-0.3c0-0.5,0.4-0.9,0.9-0.9h7.9
			c0.5,0,0.9,0.4,0.9,0.9v0.3c0,0.4-0.2,0.7-0.5,0.9L54.5,46C54.4,46.6,54.1,46.9,53.6,46.9z M47,39.7c-0.2,0-0.4,0.2-0.4,0.4v0.3
			c0,0.2,0.2,0.4,0.4,0.4l0.2,0l0.8,5.1c0.1,0.4,0.3,0.5,0.4,0.5h5.2c0.2,0,0.4,0,0.4-0.5l0.8-5.1l0.2,0c0.2,0,0.3-0.2,0.3-0.4v-0.3
			c0-0.2-0.2-0.4-0.4-0.4H47z"/>
	</g>
</g>
</svg>
