<?xml version="1.0" encoding="utf-8"?>
<!-- Generator: Adobe Illustrator 19.0.1, SVG Export Plug-In . SVG Version: 6.00 Build 0)  -->
<svg version="1.1" id="Слой_1" xmlns="http://www.w3.org/2000/svg" xmlns:xlink="http://www.w3.org/1999/xlink" x="0px" y="0px"
	 viewBox="0 0 72 71" style="enable-background:new 0 0 72 71;" xml:space="preserve">
<style type="text/css">
	.st0{fill:#335145;}
	.st1{fill:#242122;}
</style>
<g>
	<g>
		<g>
			<circle class="st0" cx="39.3" cy="37.3" r="32.7"/>
			<g>
				<g>
					<g>
						<path class="st1" d="M6.9,45.7c-1.8,0-3,0.6-3.4,1.7c-0.2,0.5-0.2,1.1,0,1.7c0.2,0.6,0.5,1.1,1,1.6c1.4,1.3,3.5,1.3,6,0.1
							c1.2-0.7,2.1-1.8,2.8-3.3c-1.3-0.5-2.5-0.9-3.5-1.2C8.7,45.9,7.7,45.7,6.9,45.7z M17,0c1.5,0.2,1.3,1.8,1.3,1.8
							s-0.1,15.5-0.1,18.3c0,0,0.3,10.7,0.3,13.7c0,3-0.2,5.8-0.5,8.3c-0.1,0.6-0.2,1.2-0.3,1.8c-0.1,0.6-0.2,1.1-0.3,1.6l1.3,0.5
							c1.5,0.6,3.1,1.2,4.7,1.9c1.6,0.6,3.3,1.2,5,1.7c1.7,0.5,3.4,0.9,5.1,1.2c1.7,0.3,3.5,0.5,5.2,0.5c7.9-0.1,14.3-4.1,19.5-12
							c0.3-0.4,0.6-0.6,1.1-0.8c0.4-0.1,0.9,0,1.3,0.3c0.4,0.3,0.6,0.6,0.8,1c0.1,0.4,0,0.9-0.3,1.3c-3.1,4.7-6.6,8.2-10.7,10.5
							c-3.5,2-7.4,3-11.6,3c-1.9,0-3.8-0.2-5.7-0.5c-1.9-0.3-3.7-0.8-5.6-1.3c-1.8-0.5-3.6-1.1-5.3-1.8c-1.7-0.7-3.3-1.3-4.8-1.9
							l-0.9-0.3c-0.1,0.1-0.2,0.2-0.2,0.3c-1,2.2-2.4,3.7-4.2,4.7C10.3,54.6,8.7,55,7.2,55c-0.1,0-0.2,0-0.4,0c-0.1,0-0.3,0-0.4,0
							c-1.5-0.1-2.9-0.6-4.2-1.8c-1.1-0.9-1.8-2.1-2.1-3.3c-0.3-1.3-0.3-2.5,0.2-3.7c0.4-1.2,1.2-2.1,2.4-2.8c1.1-0.7,2.5-1,4.1-1H7
							c1.1,0,2.2,0.2,3.4,0.5c1.2,0.3,2.5,0.8,3.9,1.3c0.1-0.4,0.2-0.8,0.3-1.2c0.1-0.4,0.1-0.8,0.2-1.3c0.3-2.4,0.5-5.1,0.5-8
							c0-2.9-0.4-12.5-0.3-13.3c0-3.2-0.2-16.5,0.2-19.2C15.1,0.3,15.8-0.2,17,0z"/>
					</g>
				</g>
				<g>
					<path class="st1" d="M37.1,32.7c1.1,5-1.3,8.8-5.8,9.7c-4.6,1-8-1.9-8.9-6.2c-1-4.6,1.2-8.7,5.7-9.7
						C32.8,25.5,36.2,28.4,37.1,32.7z M26,35.3c0.7,3,2.5,4.8,4.8,4.3c2.3-0.5,3.2-3,2.6-6c-0.6-2.8-2.4-4.8-4.8-4.3
						C26.3,29.8,25.4,32.3,26,35.3z"/>
					<path class="st1" d="M39.7,24.2l9.4-2l0.6,2.8l-5.9,1.3l0.8,3.5l5.5-1.2l0.6,2.8l-5.5,1.2l1.3,6.2L43,39.6L39.7,24.2z"/>
					<path class="st1" d="M64.7,28.1l-5.6,1.2l0.8,3.6l6.3-1.4l0.6,2.8L57,36.6l-3.3-15.4l9.5-2.1l0.6,2.8l-6,1.3l0.7,3.2l5.6-1.2
						L64.7,28.1z"/>
				</g>
			</g>
		</g>
	</g>
</g>
</svg>
