<?xml version="1.0" encoding="utf-8"?>
<!-- Generator: Adobe Illustrator 19.0.1, SVG Export Plug-In . SVG Version: 6.00 Build 0)  -->
<svg version="1.1" id="Слой_1" xmlns="http://www.w3.org/2000/svg" xmlns:xlink="http://www.w3.org/1999/xlink" x="0px" y="0px"
	 viewBox="0 0 1920 780" style="enable-background:new 0 0 1920 780;" xml:space="preserve">
<style type="text/css">
	.st0{fill:#E6E2C4;}
</style>
<g>
	<g>
		<path class="st0" d="M434.4,449.8c1.1,2.5,4.3,6.4,0,8.4C438.7,456.2,435.5,452.3,434.4,449.8z"/>
		<path class="st0" d="M876.7,342.3c-0.4,7.4,1.1,16.5,0,21.8C877.8,358.8,876.2,349.7,876.7,342.3z"/>
	</g>
	<g>
		<path class="st0" d="M1680,6c3.9-2.4,1.2-4.1,0-6.3C1680.6,1.6,1679.4,4.2,1680,6z"/>
		<polygon class="st0" points="196.7,-1.7 196.7,27.8 198.9,29.5 197.4,-1.7 		"/>
		<path class="st0" d="M1379.4,16.7l-2.1,16.1C1379.5,28.3,1380.2,22.2,1379.4,16.7z"/>
		<path class="st0" d="M1380.4-1.7h-3.4c0.3,3.7,5.6,7.4,0.2,11.1c1,2.2,1.7,4.7,2.1,7.3l2.2-17C1381.1-0.7,1380.7-1.2,1380.4-1.7z"
			/>
		<path class="st0" d="M1124.3,1h-2.2c4.1,4-1.3,7,2.2,11.7l1.4-12.6C1125.3,0.5,1124.9,0.8,1124.3,1z"/>
		<path class="st0" d="M1048.2-1.7l-1.7,16.1c5.9-2.6,5.2-10.2,3.5-16.1H1048.2z"/>
		<path class="st0" d="M886.6-1.7c-0.3,1.9-0.1,4-0.1,6c2-0.7,3,0.8,4.3,1.7l-1.4-7.7H886.6z"/>
		<polygon class="st0" points="948.9,-1.7 947,2.7 949.2,7.7 949.2,-1.7 		"/>
		<polygon class="st0" points="190.1,-1.7 188.1,4.4 190.3,6 190.3,-1.7 		"/>
		<path class="st0" d="M255.1,1c5.6,3.5-2.8,6.9,0,11.7c2.6-2.3,4.1-10.2,2.2-13.4L255.1,1z"/>
		<path class="st0" d="M1167.6,12.7l-2.2,1.7c1.1,2,4.3-7.4,0-10.1C1159.8,7,1166.7,10.1,1167.6,12.7z"/>
		<path class="st0" d="M1005.4,47.9c0.9-4.4-2-10.1,2.2-13.4l-2.2-1.7l2.2-1.7l-2.2-1.7l2.2-1.7c-4.1-1.7-1.3-5.7-2.2-8.4l2.2-1.7
			c-7.4-4.4,5.2-9.1-2.2-13.4V47.9z"/>
		<rect x="562.2" y="4.4" class="st0" width="2.2" height="15.1"/>
		<polygon class="st0" points="207.6,16.1 209.7,6 207.6,9.4 		"/>
		<polygon class="st0" points="1290.8,14.4 1288.6,7.7 1290.8,9.4 		"/>
		<path class="st0" d="M1682.2,26.1c0.9-5-1.9-11.1,2.2-15.1l-2.2-1.7V26.1z"/>
		<path class="st0" d="M384.8,22.8c6.5-3.4-3.2-5.7,0-10.1C378.4,16.1,388.1,18.4,384.8,22.8z"/>
		<path class="st0" d="M1059.5,41.2c-6.5-9,3.2-16.7,0-26.8C1056.2,22.3,1056.2,33.2,1059.5,41.2z"/>
		<path class="st0" d="M261.6,21.1c1.3,0.8,2.4,2.4,4.3,1.7l-2.2-6.7C261,17.1,261.6,19.3,261.6,21.1z"/>
		<path class="st0" d="M992.4,39.5c0.9-3.4-1.9-7.7,2.2-10.1h4.3c-3,0.7-7.1-0.7-6.5-3.3l2.2-8.4C987.2,23,990.1,33.2,992.4,39.5z"
			/>
		<path class="st0" d="M1046.5,49.6v5h2.2c-6.5-11,3.2-23.4,0-33.5C1053.8,32.8,1038.9,38.5,1046.5,49.6z"/>
		<path class="st0" d="M970.8,27.8c1.9,0.7,3-0.8,4.3-1.7l-2.2-5C972.1,23.5,974.9,26.5,970.8,27.8z"/>
		<path class="st0" d="M356.8,34.5l2.1-1.7c-3.9-2.2-5-5-4.3-8.4h-2.2L356.8,34.5z"/>
		<path class="st0" d="M257.3,36.2c-0.7,2.8,1.3-9.4,0-11.7V36.2z"/>
		<path class="st0" d="M564.3,29.5c-4.1,1.7-1.3,5.7-2.2,8.4l2.2-11.7l-2.2,1.7L564.3,29.5z"/>
		<rect x="1275.7" y="29.5" class="st0" width="2.2" height="10.1"/>
		<path class="st0" d="M698.4,29.5c2.6,2.7,2.2,6.5,2.2,10.1V29.5H698.4z"/>
		<path class="st0" d="M1301.6,36.2l2.2,1.7h2.2v-6.7h-2.2C1303.8,33,1304.2,35.2,1301.6,36.2z"/>
		<path class="st0" d="M947,39.5c0,4.5,0,13.4,0,20.1c4.1-8.4,1.3-21.1,2.2-28.5C945.1,32.8,947.9,36.9,947,39.5z"/>
		<path class="st0" d="M1677.8,74.7c0.9-11.9-1.9-29,2.2-41.9C1675.9,45.7,1678.7,60.7,1677.8,74.7z"/>
		<path class="st0" d="M683.2,42.9c3.4-2.5,2.6-7.5,0-10.1V42.9z"/>
		<rect x="1143.8" y="34.5" class="st0" width="2.2" height="30.2"/>
		<path class="st0" d="M1377.3,79.7c5.4,9.4,0.9,16.1,2.2,26.8c7.4-12.4-5.2-29.1,2.2-43.6l-2.2-1.7c1.3-0.8,2.4-2.4,4.3-1.7
			c-2.8-9.2-1.9-13.4-2.2-23.4L1377.3,79.7z"/>
		<path class="st0" d="M1442.2,56.3c6.5-4.7-3.3-11.4,0-18.4C1438,43.2,1444.3,49.6,1442.2,56.3z"/>
		<rect x="750.3" y="37.9" class="st0" width="2.2" height="10.1"/>
		<polygon class="st0" points="80,46.2 82.2,37.9 80,39.5 		"/>
		<polygon class="st0" points="1407.6,47.9 1409.7,39.5 1407.6,41.2 		"/>
		<path class="st0" d="M341.6,51.3c2.2,1,3.2,4,6.5,3.3c3-2.5,3.2-8.2,2.2-10c-0.9,2.3,1.9,5.3-2.2,6.7c-5.4-2.2-4.1-6.4-4.3-10.1
			C345.7,45.4,339.5,47.1,341.6,51.3z"/>
		<path class="st0" d="M992.4,51.3c0.9-2.4-1.9-5.5,2.2-6.7l-2.2-1.7V51.3z"/>
		<path class="st0" d="M698.4,51.3l2.2,1.7v-8.4C696.4,45.7,699.2,48.9,698.4,51.3z"/>
		<rect x="1213" y="46.2" class="st0" width="2.2" height="13.4"/>
		<path class="st0" d="M1094,52.9c3.3-1.3,3.3-5.5,0-6.7V52.9z"/>
		<path class="st0" d="M335.1,54.6c5.2-3.5-2.2-4.9-2.2-8.4L335.1,54.6z"/>
		<polygon class="st0" points="1243.2,54.6 1245.4,49.6 1243.2,49.6 		"/>
		<polygon class="st0" points="1163.2,56.3 1165.4,49.6 1163.2,51.3 		"/>
		<path class="st0" d="M882.1,61.3c5.4-1.5,7.6-6.7,6.5-11.7C886.5,53.6,888.9,58.8,882.1,61.3z"/>
		<rect x="205.4" y="51.3" class="st0" width="2.2" height="10.1"/>
		<path class="st0" d="M992.4,101.5c0-10.1,0-32.3,0-45.2C988.1,72.5,991.1,86.8,992.4,101.5z"/>
		<polygon class="st0" points="1245.4,69.7 1245.4,58 1243.2,59.6 		"/>
		<path class="st0" d="M683.2,66.3c11.7-1.8-6.1-2.5,0-8.4V66.3z"/>
		<path class="st0" d="M374,58c0,1.8-0.6,4,2.2,5l2.2-5H374z"/>
		<path class="st0" d="M1565.4,59.6l2.2,23.5L1565.4,59.6z"/>
		<path class="st0" d="M970.8,59.6c-0.9,1.5,1.1,2.3,2.2,3.4c-4.1,1.2-1.3,4.3-2.2,6.7l2.2-10.1H970.8z"/>
		<path class="st0" d="M566.5,71.4l-2.1-11.7C571.7,63.7,559.1,67.3,566.5,71.4z"/>
		<path class="st0" d="M1286.5,63l2.2,8.4L1286.5,63z"/>
		<path class="st0" d="M869.2,93.1c-2-7.7,3-13.4,4.3-20.1c-6.1-3.2,1.9-6,0-10.1C866.2,71.2,869.4,84.8,869.2,93.1z"/>
		<path class="st0" d="M921.1,86.4c2.6,1,2.2,3.2,2.2,5l2.2-0.2l-2.2-26.8l-2.2,0.2C921.1,72,921.1,81.2,921.1,86.4z"/>
		<path class="st0" d="M888.6,69.7l-6.5-1.7c-0.8,2.7,2,6.7-2.2,8.4c6.5-1,4.3-9.1,13-8.4l-2.2-3.3
			C890.8,66.5,891.2,68.7,888.6,69.7z"/>
		<polygon class="st0" points="1446.5,78.1 1444.3,66.3 1444.3,78.1 		"/>
		<path class="st0" d="M702.7,81.4c6.5-4.4-3.2-8,0-13.4V81.4z"/>
		<path class="st0" d="M438.9,73l-4.3,11.7L438.9,73z"/>
		<path class="st0" d="M1003.2,83.1l2.2,1.7h2.2V74.7h-2.2C1004.5,77.4,1007.4,81.4,1003.2,83.1z"/>
		<rect x="1411.9" y="78.1" class="st0" width="2.2" height="11.7"/>
		<path class="st0" d="M910.3,88.1c0.9-2.7,7.8-5.7,2.2-8.4C908.3,79.9,911.1,85.4,910.3,88.1z"/>
		<rect x="1630.3" y="83.1" class="st0" width="2.2" height="6.7"/>
		<path class="st0" d="M1061.6,94.8h-4.3l4.3,3.4c-0.7,2.7-6.1,0.2-4.3,3.4v6.7c-3.2-8.9,14.1-8.6,6.5-16.8c-2.2-4.2,4.3-4.9,0-8.4
			C1062.9,87.1,1065.7,91.8,1061.6,94.8z"/>
		<path class="st0" d="M460.5,84.8c4.1,4,1.3,10.1,2.2,15.1l-4.3,3.3c6.3,4.2,6.3,15.4,4.3,21.8c0,2.3,0,9,0,13.4
			c7.3-6.7-5.2-13.4,2.2-20.1c-1.1-1-3-1.9-2.2-3.4l2.2-1.7c-0.9-6.7,2-12.4-2.2-20.1C468.3,90.5,461.4,85.9,460.5,84.8z"/>
		<polygon class="st0" points="198.9,93.1 198.9,84.8 196.7,84.8 		"/>
		<path class="st0" d="M1040,94.8l6.5,3.4c1.3-3.5,6.5-8.4,2.2-11.7C1051.7,92.3,1044.1,93,1040,94.8z"/>
		<path class="st0" d="M700.5,116.6l2.2,1.7c3.2-4,3.2-23.3,0-30.2C701.8,97.5,704.7,108.2,700.5,116.6z"/>
		<path class="st0" d="M1011.9,93.1c1.1,1,3,1.8,2.2,3.3c2,0.7,3-0.8,4.3-1.7l-4.3-5C1014.9,91.3,1013,92.1,1011.9,93.1z"/>
		<polygon class="st0" points="1031.3,98.2 1031.3,91.5 1029.2,96.5 		"/>
		<path class="st0" d="M1001.1,91.5c-3.2,3.7,6.5,5.7,0,8.4c4.1,1.2,1.3,4.3,2.2,6.7C1002.2,101.4,1009.9,93.5,1001.1,91.5z"/>
		<path class="st0" d="M910.3,108.2c-2.4,2,4.5-6.7,2.2-11.7C908.3,99.4,911.1,104.2,910.3,108.2z"/>
		<rect x="918.9" y="99.9" class="st0" width="2.2" height="10"/>
		<path class="st0" d="M566.5,116.6v-15.1C560,106.6,569.7,110.6,566.5,116.6z"/>
		<path class="st0" d="M1094,103.2c4.1,1.2,1.3,4.4,2.2,6.7v-6.7H1094z"/>
		<polygon class="st0" points="1018.4,111.6 1020.5,103.2 1018.4,104.9 		"/>
		<rect x="1617.3" y="104.9" class="st0" width="2.2" height="11.7"/>
		<polygon class="st0" points="780.5,111.6 778.4,104.9 780.5,106.6 		"/>
		<path class="st0" d="M845.4,108.2c-0.9,1.5,1.1,2.3,2.2,3.4l-2.2,1.7l2.2,1.7v-6.7H845.4z"/>
		<path class="st0" d="M1379.4,130c-1.7-7.5,5.2-13.4,0-20.1V130z"/>
		<path class="st0" d="M361.1,131.7v6.7c2.4-8.4,5.2-21.1-2.2-28.5C359.8,115.1,357,125.3,361.1,131.7z"/>
		<path class="st0" d="M867,113.2l4.3,13.4v-15.1C869.4,110.9,868.3,112.4,867,113.2z"/>
		<polygon class="st0" points="1005.4,125 1007.6,114.9 1005.4,118.3 		"/>
		<rect x="856.2" y="116.6" class="st0" width="2.2" height="8.4"/>
		<path class="st0" d="M1764.3,121.6c7.4,2.7-5.2,5.7,2.2,8.4v-10L1764.3,121.6z"/>
		<path class="st0" d="M1163.2,131.7c4.1-2.2-2.2-5,0-8.4V131.7z"/>
		<path class="st0" d="M1145.9,141.7c5.6-5.2-2.8-10.2,0-16.8V141.7z"/>
		<path class="st0" d="M369.7,136.7c1.9-2.7,5.6-7.2,2.2-11.7C366.3,128.3,376.2,133.2,369.7,136.7z"/>
		<polygon class="st0" points="992.4,131.7 994.6,126.7 992.4,126.7 		"/>
		<polygon class="st0" points="858.4,135 860.5,128.3 858.4,128.3 		"/>
		<path class="st0" d="M845.4,138.4c4.3,2,1.1,5.9,0,8.4l2.2-16.8C846.7,132.7,849.5,136.7,845.4,138.4z"/>
		<path class="st0" d="M564.3,176.9l2.1-46.9C565.6,144.2,558.7,161.2,564.3,176.9z"/>
		<path class="st0" d="M1749.2,146.8h2.2c-3-6,4.5-9.7,8.6-15.1C1758,139.4,1743.8,136.2,1749.2,146.8z"/>
		<polygon class="st0" points="1675.7,140.1 1677.8,131.7 1677.8,138.4 		"/>
		<path class="st0" d="M776.2,135l2.1,1.7h2.2v-5h-2.2C779.2,133.2,777.3,134,776.2,135z"/>
		<path class="st0" d="M1528.6,141.7c5.6-1.9-2.8-3.5,0-6.7V141.7z"/>
		<polygon class="st0" points="1104.9,141.7 1102.7,135 1102.7,141.7 		"/>
		<path class="st0" d="M702.7,146.8c0,5.7,0,17.8,0,23.5v5c5.6-13.4-4.3-25.3,2.2-38.5l-2.2-1.7
			C705.3,139.9,697.1,143.2,702.7,146.8z"/>
		<path class="st0" d="M936.2,155.1c5.2-6,16.7-6.5,10.8-16.8C944,144.1,945.3,151.3,936.2,155.1z"/>
		<path class="st0" d="M858.4,165.2v-26.8C851.9,147.4,861.6,155.1,858.4,165.2z"/>
		<polygon class="st0" points="609.7,148.4 611.9,138.4 609.7,143.4 		"/>
		<rect x="95.1" y="140.1" class="st0" width="2.2" height="6.7"/>
		<path class="st0" d="M1003.2,155.1h2.2l-2.2-13.4C996.7,146.1,1006.5,149.6,1003.2,155.1z"/>
		<path class="st0" d="M994.6,165.2c-0.9-4.4,2-10.1-2.2-13.4c5.8-3.2-1.9-6,0-10.1L994.6,165.2z"/>
		<path class="st0" d="M369.7,151.8l2.2,1.7l2.1-10.1C369.9,143.7,373.2,149.6,369.7,151.8z"/>
		<rect x="1675.7" y="145.1" class="st0" width="2.2" height="10"/>
		<rect x="1260.5" y="145.1" class="st0" width="2.2" height="6.7"/>
		<path class="st0" d="M1379.4,165.2c0.2,6.9,1.3,13.6-2.2,21.8l2.2,1.7c5.8-9.2-3-26.8,0-41.9
			C1381.6,153.5,1375.3,159.7,1379.4,165.2z"/>
		<polygon class="st0" points="138.4,155.1 140.5,146.8 138.4,151.8 		"/>
		<polygon class="st0" points="1729.7,158.5 1731.9,150.1 1729.7,155.1 		"/>
		<path class="st0" d="M869.2,150.1c-0.2,4.2,3.5,7,2.1,11.7v-11.7H869.2z"/>
		<path class="st0" d="M1747,158.5c2.2-6,14.1,5.2,6.5-3.3l-2.2,1.7l-2.2-5L1747,158.5z"/>
		<path class="st0" d="M813,165.2c-2.2-5,4.1-9.7,0-13.4V165.2z"/>
		<path class="st0" d="M1757.8,165.2l-4.3-3.4v5c9.9,2.4,2.6-7.2,10.8-8.4l-2.2-5C1763.5,158.3,1760.2,161.7,1757.8,165.2z"/>
		<path class="st0" d="M607.6,153.5l-2.2,8.4L607.6,153.5z"/>
		<polygon class="st0" points="585.9,160.2 588.1,153.5 585.9,153.5 		"/>
		<path class="st0" d="M1675.7,173.6c4.1-4,1.3-10.1,2.2-15.1l-4.3-1.7C1677.6,161.3,1674.8,167.9,1675.7,173.6z"/>
		<path class="st0" d="M925.4,165.2c1.3-4,9.7-1.3,6.5-6.7C930.8,159.5,925.4,162.2,925.4,165.2z"/>
		<path class="st0" d="M1003.2,161.8c0.9,10.1,7.8,20.1,2.2,30.2l2.2-31.8C1005.6,159.5,1004.5,161,1003.2,161.8z"/>
		<path class="st0" d="M880,178.6c10.6-3.4-2.2-10.7,4.3-16.8C879.8,165,884.5,173.9,880,178.6z"/>
		<path class="st0" d="M802.2,183.6c4.1-1.8,1.3-9,2.2-13.4l-2.2-1.7l2.2-1.7c-5.2-1.7,1.5-2.5,0-5C800.2,168,803,176.2,802.2,183.6
			z"/>
		<path class="st0" d="M583.8,163.5c0,1.8-0.6,4,2.2,5h2.2C583.6,167.9,588.3,162.7,583.8,163.5z"/>
		<polygon class="st0" points="1273.5,173.6 1275.7,165.2 1273.5,166.9 		"/>
		<rect x="1148.1" y="165.2" class="st0" width="2.2" height="6.7"/>
		<path class="st0" d="M136.2,175.2c2.2-2.7,2.2-5.7,0-8.4V175.2z"/>
		<rect x="1321.1" y="168.5" class="st0" width="2.2" height="6.7"/>
		<rect x="1641.1" y="171.9" class="st0" width="2.2" height="13.4"/>
		<path class="st0" d="M992.4,173.6c-1.3-0.8-2.4-2.4-4.3-1.7l6.5,3.3v-3.3L992.4,173.6z"/>
		<path class="st0" d="M609.7,171.9l2.2,11.7L609.7,171.9z"/>
		<path class="st0" d="M108.1,175.2c-0.9,11.2,2,27.8-2.2,40.2c6.3,2.8-1.1,11.9,4.3,16.7c-4.1,2.3-1.3,6.7-2.1,10.1l2.1,1.7
			l-2.1,1.7c-0.9,6.2,2,17.8-2.2,25.1l4.3,26.8c-3.3-11.1,6.5-20.1,0-30.2l4.3-3.4c0.9,3.4,7.8,6.7,2.2,10.1
			c8.6,0.2,1.1-7.7,6.5-10.1c-3.2-9-3.2-21.1,0-30.2c8.7,0.8,1.1,10.1,6.5,13.4c-2.8,1-2.1,3.2-2.1,5l2.1,1.7c0.9-2.3-2-5.5,2.2-6.7
			c7.8,1.5,3,10.1,4.3,15.1c-0.8,4,2,13.4-2.2,18.4c7.8,11.1-6.7,23.5,4.3,33.5c-4.1,2.9-1.3,7.7-2.2,11.7
			c7.8-16.6-6.7-41.2,4.3-60.3c-3.2-6.7-3.2-16.8,0-23.5l-4.3,6.7c-11.5-1.7-5.6-14.1-6.5-18.4l-6.5,1.7
			c-4.1-12.2-1.3-22.5-2.2-33.5c-3.2,11.7-3.2,20.1,0,31.8l-4.3,5c2.4,7.9,5.2,19.9-2.2,26.8l-6.5-6.7c0.2-19.1,8.8-39.9,2.1-56.9
			v-23.5H108.1z"/>
		<polygon class="st0" points="994.6,202 996.7,201.9 994.6,178.4 992.4,178.6 994.6,195.3 		"/>
		<polygon class="st0" points="973,187 975.1,178.6 973,180.3 		"/>
		<path class="st0" d="M661.6,193.7c6.7-3.5,1.5-9.7,0-15.1C655.1,183.6,664.9,187.6,661.6,193.7z"/>
		<path class="st0" d="M1245.4,193.7v-13.4C1244.3,184.4,1241.1,189.8,1245.4,193.7z"/>
		<path class="st0" d="M895.1,181.9l6.5,1.7v-3.4C899.2,180.3,896.4,179.8,895.1,181.9z"/>
		<path class="st0" d="M564.3,203.7l2.1-23.5C559.1,186.5,571.7,196,564.3,203.7z"/>
		<path class="st0" d="M1148.1,193.7l2.2,1.7v-13.4C1148.1,185.3,1142.9,190.1,1148.1,193.7z"/>
		<path class="st0" d="M1048.6,197c-3.2-6,6.5-10.1,0-15.1V197z"/>
		<path class="st0" d="M1260.5,202h2.2c-6.5-6,3.2-11.4,0-18.4C1258.6,188.6,1261.4,196,1260.5,202z"/>
		<path class="st0" d="M134,183.6c5.4,3.5,5.6,10.9,2.2,15.1C133.4,198,143.8,186,134,183.6z"/>
		<path class="st0" d="M1593.5,198.7c-2.4,3.5,4.5-6.7,2.2-11.7L1593.5,198.7z"/>
		<path class="st0" d="M1133,197c1.9-0.7,3,0.8,4.3,1.7c0.9,3.2-2.4-6.5,4.3-5l-4.3-3.3L1133,197z"/>
		<path class="st0" d="M977.3,213.8c-5.6-3.3,1.3-6.7,2.2-10c2-0.7,3,0.8,4.3,1.7l2.2-1.7c-1.9,0.7-3-0.8-4.3-1.7c0-1.8-0.6-4,2.2-5
			h2.2l-4.3-3.4c0,1.8,0.4,4-2.2,5c-3.9-2.2-5-5-4.3-8.4v23.4H977.3z"/>
		<path class="st0" d="M460.5,220.5l4.3,6.7c3.3-4.4-6.5-6.7,0-10.1l-4.3-26.8C463.8,199.4,463.8,211.4,460.5,220.5z"/>
		<path class="st0" d="M95.1,218.8c4.1-1.7,1.3-5.7,2.2-8.4l-2.2-1.7l4.3-3.4c-1.9,0.7-3-0.8-4.3-1.7c11.9-3-4.1-8.2-2.2-13.4
			C96.7,200.7,94.9,207.2,95.1,218.8z"/>
		<path class="st0" d="M1379.4,195.3c4.1,1.2,1.3,4.4,2.2,6.7c-0.9,2.8,1.9,11.1-2.2,15.1c2.4,6.2,5.2,16.6-2.2,21.8
			c2.6,1,2.2,3.2,2.2,5l-2.2,1.7l2.2,1.7c7.4-17.7,4.5-34.8,2.2-53.6L1379.4,195.3z"/>
		<path class="st0" d="M1124.3,207.1c0-4.4-0.9-10.6,4.3-11.7C1117.8,196.8,1126.9,201.5,1124.3,207.1z"/>
		<path class="st0" d="M1005.4,203.7l2.2,1.7v-10.1C1006.5,198,1004.5,200.5,1005.4,203.7z"/>
		<rect x="962.2" y="197" class="st0" width="2.2" height="10.1"/>
		<path class="st0" d="M624.9,225.5c7.3-9.4-5.2-19.1,2.2-28.5L624.9,225.5z"/>
		<rect x="702.7" y="198.7" class="st0" width="2.2" height="20.1"/>
		<path class="st0" d="M255.1,220.5c7.4-4.7,4.5-14.4,2.2-20.1l-2.2-1.7C258.4,207.1,248.6,213.1,255.1,220.5z"/>
		<path class="st0" d="M1137.3,210.4c-2.8,4.2,2.6-5.2-2.2-6.7C1139.2,204.9,1136.4,208.1,1137.3,210.4z"/>
		<rect x="1050.8" y="203.7" class="st0" width="2.2" height="8.4"/>
		<path class="st0" d="M134,228.8c2.6,1,2.2,3.2,2.2,5c0.9-4-1.9-13.4,2.2-18.4l-2.2-11.7C128.9,212.1,141.4,220.5,134,228.8z"/>
		<rect x="1630.3" y="205.4" class="st0" width="2.2" height="13.4"/>
		<polygon class="st0" points="263.8,212.1 265.9,205.4 263.8,205.4 		"/>
		<path class="st0" d="M1673.5,233.9c9.9,4.5-1.7,10.1,2.2,16.8c0.9-14.7,3-27.5,2.2-43.6C1673.3,214.9,1678.1,225.8,1673.5,233.9z"
			/>
		<rect x="830.3" y="207.1" class="st0" width="2.2" height="8.4"/>
		<path class="st0" d="M1243.2,222.1c5.2-3.5-0.6-7.7,0-11.7V222.1z"/>
		<path class="st0" d="M564.3,217.1c-2.4,4,1.3-4,0-6.7V217.1z"/>
		<polygon class="st0" points="1528.6,220.5 1528.6,213.8 1526.5,218.8 		"/>
		<polygon class="st0" points="1065.9,222.1 1068.1,213.8 1065.9,215.4 		"/>
		<path class="st0" d="M730.8,217.1c3.7,2,4.8,5,4.3,8.4C743.1,223.8,739.2,213.3,730.8,217.1z"/>
		<path class="st0" d="M1796.7,220.5c-3.2-3.3-8.7,5-13,0l-2.2,1.7l2.2,1.7c-0.2,5.9-1.9,12.6-2.2,20.1c6.9-0.8-7.8-32.8,21.6-23.5
			l-2.2-1.7C1799.8,219.6,1798.7,221.1,1796.7,220.5z"/>
		<rect x="650.8" y="218.8" class="st0" width="2.2" height="16.8"/>
		<path class="st0" d="M93,222.1c6.5,8.5-3.5,18.4,2.2,26.8C91,238.9,103.6,228.7,93,222.1z"/>
		<path class="st0" d="M1243.2,228.8c1.1,1,3,1.8,2.2,3.4l-2.2,1.7l2.2-8.4C1246.3,227,1244.3,227.8,1243.2,228.8z"/>
		<path class="st0" d="M447.6,228.8l2.1,16.8L447.6,228.8z"/>
		<rect x="1591.3" y="230.5" class="st0" width="2.2" height="6.7"/>
		<path class="st0" d="M1453,233.9c2.4,0,5.2-0.5,6.5,1.7h-2.2v3.3h2.2v-5H1453z"/>
		<polygon class="st0" points="1262.7,240.6 1260.5,233.9 1260.5,238.9 		"/>
		<path class="st0" d="M761.1,262.3l-2.2-1.7c0-6.4,0-16.7,0-25.1v26.8H761.1z"/>
		<rect x="255.1" y="235.5" class="st0" width="2.2" height="10"/>
		<path class="st0" d="M1223.8,249l2.2,1.7l4.3-13.4C1224.9,238.7,1232.4,248.4,1223.8,249z"/>
		<polygon class="st0" points="1094,247.3 1096.2,237.2 1094,240.6 		"/>
		<path class="st0" d="M657.3,254c-4.1-5.8,0-9.2-4.3-15.1C657.5,244.9,643,254,657.3,254z"/>
		<path class="st0" d="M707,250.6v-10.1C700.5,243.9,710.3,246.3,707,250.6z"/>
		<path class="st0" d="M1260.5,257.3c-2.4,9.5-5.2,23.3,2.2,31.8c5.6-3.3-1.3-6.7-2.2-10.1c-3.2-11.7,6.5-21.1,0-31.8l2.2-1.7
			l-2.2-1.7C1256.4,247.6,1262.7,252.3,1260.5,257.3z"/>
		<polygon class="st0" points="813,257.3 817.3,243.9 813,255.6 		"/>
		<polygon class="st0" points="1470.3,250.6 1470.3,245.6 1468.1,245.6 		"/>
		<path class="st0" d="M1174,254c1.1,1,3,1.8,2.2,3.4c-5.6,4.2,2.6-1.3,0-3.4c1.3-0.8,2.4-2.3,4.3-1.7l-2.2-3.3
			C1179.2,251.5,1175.3,252.3,1174,254z"/>
		<rect x="962.2" y="249" class="st0" width="2.2" height="6.7"/>
		<path class="st0" d="M1377.3,295.9l-6.5,3.4l6.5,5c-7.8,5.7-3,15.7-4.3,23.5c3-10.7,2.4-22.3,8.7-31.8c-9.5-11.1,0-24.8,0-36.9
			h2.2l-4.3-8.4C1378.4,264,1372.3,280.9,1377.3,295.9z"/>
		<path class="st0" d="M1096.2,270.7c-4.1,12.7-1.3,23.5-2.2,35.2c7.4,2.7-5.2,5.7,2.2,8.4c-0.9-17.4,2-35.7-2.2-51.9l2.2-1.7
			c-7.3-3.4,5.2-6.7-2.2-10.1C1096.6,255.8,1091.2,264.9,1096.2,270.7z"/>
		<path class="st0" d="M1135.1,255.6l-6.5,5l2.2,1.7C1129.5,259.2,1132.7,257.5,1135.1,255.6l13,1.7V254
			C1145.1,257.2,1139.5,255,1135.1,255.6l-2.2-3.3C1132.1,253.8,1134,254.6,1135.1,255.6z"/>
		<rect x="845.4" y="252.3" class="st0" width="2.2" height="8.4"/>
		<path class="st0" d="M1122.2,254c-0.2,2.5,3.5,3.7,2.2,6.7c-5.6,4.2,2.6-1.3,0-3.4l2.2-1.7C1130.6,256.6,1124.1,253.8,1122.2,254z
			"/>
		<path class="st0" d="M704.9,264c0.9-3.3,7.8-6.7,2.2-10.1C704.2,256.6,704.9,260.5,704.9,264z"/>
		<polygon class="st0" points="832.4,264 830.3,255.6 830.3,264 		"/>
		<path class="st0" d="M95.1,274.1c4.5-2.7,0.4-11.7,2.2-15.1l-2.2-3.4V274.1z"/>
		<rect x="1727.6" y="257.3" class="st0" width="2.2" height="6.7"/>
		<path class="st0" d="M1158.9,269.1c5.4-2.2,4.1-6.4,4.3-10.1C1161.9,262.3,1157,264.7,1158.9,269.1z"/>
		<path class="st0" d="M1675.7,280.8c1.3,4.9-2,8.2-4.3,11.7l2.2-1.7c5.6,2.7-1.3,5.7-2.2,8.4c8-2.7,1.3-13.2,6.5-18.4
			c-1.1-1-3-1.8-2.2-3.3l2.2-1.7c-4.3-3.9-1.1-9.2,0-13.4C1671.3,264.7,1677.6,274.2,1675.7,280.8z"/>
		<path class="st0" d="M1003.2,269.1c2.6,1,2.2,3.2,2.2,5h2.2V264h-2.2C1005.4,265.9,1005.8,268.1,1003.2,269.1z"/>
		<path class="st0" d="M767.6,272.4c4.3-3.5-2.1-4.2,0-8.4V272.4z"/>
		<path class="st0" d="M994.6,275.8c0.9-2.3-1.9-5.5,2.2-6.7l-2.2-1.7C987.5,270,993.3,272.6,994.6,275.8z"/>
		<path class="st0" d="M761.1,287.5c-1.3-8.4,0.4-11.6,0-20.1C764.3,275.1,754.6,280.8,761.1,287.5z"/>
		<path class="st0" d="M873.5,272.4l-4.3,8.4L873.5,272.4z"/>
		<path class="st0" d="M1133,280.8c3.2-1.3,3.2-5.5,0-6.7V280.8z"/>
		<path class="st0" d="M765.4,282.4l2.1,1.7c4.3-2.2,1.1-5.9,0-8.4C766.7,278.1,769.5,281.1,765.4,282.4z"/>
		<polygon class="st0" points="95.1,289.1 97.3,277.4 95.1,282.4 		"/>
		<path class="st0" d="M847.6,282.4c-18-3.2-33.3-1-49.7-1.7v1.7c3.5-0.7,8.7,1.5,10.8-1.7l4.3,3.4c1.3-0.8,2.4-2.3,4.3-1.7l2.2,1.7
			c8-0.7,22.9,1.5,32.4-1.7c2.2,3.2,7.3,1,10.8,1.7l-13-5C850.6,280.6,848.6,281.4,847.6,282.4z"/>
		<path class="st0" d="M787,280.8c-0.9,3.4,8.6,5.2,2.1,8.4h-4.3c7.3,2,5.2-4.7,8.6-6.7l-2.2-3.4C790,279.9,789,281.4,787,280.8z"/>
		<path class="st0" d="M748.1,284.1h4.3l-2.2-5C750.3,280.9,750.7,283.1,748.1,284.1z"/>
		<path class="st0" d="M1766.5,297.5c4.3,0.7,6.7-6.7,10.8-1.7c1.3,3.2-1.9,4.9-4.3,6.7c8,2.5,9.7-8.4,8.7-16.8
			c-1.9-0.7-3,0.8-4.3,1.7l-2.2-5C1771.7,287.3,1774,295.3,1766.5,297.5z"/>
		<path class="st0" d="M118.9,309.3c6.3-9.4-4.1-19.3,8.6-25.1l-2.2,1.7l-4.3-3.4C117,292.5,119.8,298.2,118.9,309.3z"/>
		<path class="st0" d="M1749.2,292.5c-3.2,5.4,6.5,9.1,0,13.4c1.9-0.7,3,0.8,4.3,1.7v1.7l2.2-1.7c-1.9,0.7-3-0.8-4.3-1.7
			c2.4-2.4,6.5-2.2,8.6-5h2.2v-6.7h-2.2c0.9,2.5-3,3.3-4.3,5c-6.5-5,3.2-9.1,0-15.1C1754.4,287.3,1749.6,289.1,1749.2,292.5z"/>
		<path class="st0" d="M730.8,289.1c-0.6-5.9,8-1.7,10.8-5C737.5,285,728.9,284.1,730.8,289.1z"/>
		<path class="st0" d="M1243.2,285.8l-2.2,6.7L1243.2,285.8z"/>
		<path class="st0" d="M962.2,292.5c1.1,1,3,1.8,2.2,3.3c6.5-3.3-3.2-5.7,0-10C963.4,288.1,966.3,291.2,962.2,292.5z"/>
		<path class="st0" d="M923.2,310.9l2.2,5v-30.1C920.4,293.3,925.8,304,923.2,310.9z"/>
		<path class="st0" d="M765.4,290.8c2.4-4,5.6,0.3,8.6,0l-4.3-3.4L765.4,290.8z"/>
		<path class="st0" d="M1742.7,289.1l-2.1,20.1L1742.7,289.1z"/>
		<path class="st0" d="M1145.9,292.5c4.1,1.2,1.3,4.4,2.2,6.7v-8.4L1145.9,292.5z"/>
		<path class="st0" d="M750.3,294.2c16.4-6.5,4.1,12.1,10.8,16.8c-2.8-0.5,2.6-7.2-2.2-11.7c5.6-2.7-1.3-5.7-2.2-8.4
			C753.5,290.2,752.4,293.2,750.3,294.2z"/>
		<path class="st0" d="M151.3,307.6h2.2c-7.3-5.7,5.2-11.1-2.2-16.8C148.1,294,148.1,302.9,151.3,307.6z"/>
		<polygon class="st0" points="1310.3,299.2 1312.4,292.5 1310.3,292.5 		"/>
		<polygon class="st0" points="1258.4,304.2 1258.4,292.5 1256.2,292.5 		"/>
		<path class="st0" d="M464.9,294.2c5.2,1.8-0.6,4.4,0,6.7c4.1,5,1.3,12.4,2.2,18.4v-26.8L464.9,294.2z"/>
		<path class="st0" d="M1014,302.6c2.4,0,5.2-0.5,6.5,1.7l2.2-1.7c-6.7,0.3-3.5-5.5-4.3-8.4L1014,302.6z"/>
		<path class="st0" d="M893,294.2c-0.8,1.5,1.1,2.3,2.2,3.3c-4.1,1.7-1.3,5.7-2.2,8.4c2.6-1,2.2-3.2,2.2-5c-5.6-1.8,2.6-3.5,0-6.7
			H893z"/>
		<path class="st0" d="M733,295.9c-1.3-0.8-2.4-2.3-4.3-1.7v5l8.6-5C735.4,293.5,734.3,295,733,295.9z"/>
		<path class="st0" d="M1001.1,299.2l4.3,5c4.5-1.7,2.2-4.2,2.2-8.4C1005.4,296.9,1004.3,299.9,1001.1,299.2z"/>
		<path class="st0" d="M1048.6,344.4c1.5-17.4,2.6-30.2,0-45.2V344.4z"/>
		<path class="st0" d="M657.3,300.9l-6.5,5l19.5-5C664.6,298.4,661.6,305.9,657.3,300.9z"/>
		<path class="st0" d="M105.9,302.6v3.3c1.9-3,5.8-1,4.3-5C109,301.7,107.9,303.2,105.9,302.6z"/>
		<path class="st0" d="M564.3,312.6c1.3,0.8,2.4,2.4,4.3,1.7c-7.3-4,5.2-7.7-2.2-11.7C565.6,305.9,568.4,310.3,564.3,312.6z"/>
		<polygon class="st0" points="1063.8,316 1065.9,305.9 1063.8,309.3 		"/>
		<path class="st0" d="M1256.2,326c4.1,1.2,1.3,4.4,2.2,6.7c-3.2-8.9,6.5-15.7,0-23.4C1257.5,315,1260.3,321.3,1256.2,326z"/>
		<path class="st0" d="M704.9,319.3c0.9-1.3,7.8-5.7,2.2-8.4L704.9,319.3z"/>
		<polygon class="st0" points="1738.4,319.3 1742.7,312.6 1738.4,317.6 		"/>
		<path class="st0" d="M1714.6,331l-4.3-5c-3,2.9-8.4,1-10.8,5c-0.2,4.2,3.5,7,2.2,11.7c7.4-10.5,23.8-13.6,17.3-28.5
			C1717.6,320,1722.4,327.5,1714.6,331z"/>
		<path class="st0" d="M361.1,332.7l6.5-1.7c-2.4,0-5.2,0.3-6.5-1.7c11.7-4.7-4.1-8.9,0-15.1C354.6,318.8,364.3,325.5,361.1,332.7z"
			/>
		<polygon class="st0" points="1154.6,326 1156.8,317.6 1152.4,324.3 		"/>
		<path class="st0" d="M964.3,327.7c3-2.5,3-7.5,0-10.1V327.7z"/>
		<path class="st0" d="M1007.6,324.3c2.6,1,2.2,3.2,2.2,5v-6.7L1007.6,324.3z"/>
		<path class="st0" d="M925.4,329.4c-0.6-2.3,5.2-4.9,0-6.7V329.4z"/>
		<rect x="704.9" y="322.7" class="st0" width="2.2" height="6.7"/>
		<path class="st0" d="M1827,342.8c4.1,0-8.4-8.9,2.2-11.7l-4.3-6.7C1825.7,328.3,1822.9,337.7,1827,342.8z"/>
		<path class="st0" d="M657.3,344.4c4.1,1.5,1.3-13.4,2.2-20.1C655.4,330,658.2,337.7,657.3,344.4z"/>
		<polygon class="st0" points="473.5,347.8 473.5,324.3 471.3,337.7 		"/>
		<path class="st0" d="M648.7,336.1l2.2-10.1C649.9,329.4,643,332.7,648.7,336.1z"/>
		<path class="st0" d="M996.7,342.8l-2.2-13.4C994.8,335.9,992.9,337.2,996.7,342.8z"/>
		<rect x="756.7" y="331" class="st0" width="2.2" height="6.7"/>
		<path class="st0" d="M566.5,346.1l2.2-15.1C561.9,334.7,568.6,339.4,566.5,346.1z"/>
		<path class="st0" d="M1829.2,352.8c-2.8-1-2.2-3.2-2.2-5c-1.3,3.4-6.3,5.7-4.3,10.1l4.3,3.3c0.9-2.3-1.9-5.5,2.2-6.7
			c3,1.8,2.6,5,6.5,6.7c-2.2-4.7-5.4-7.5,0-11.7l2.2-1.7h-2.2l-2.2-15.1C1829,340.4,1833.7,345.1,1829.2,352.8z"/>
		<rect x="1684.3" y="332.7" class="st0" width="2.2" height="6.7"/>
		<path class="st0" d="M964.3,339.4c-1.9,3.7,3,5.7,4.3,8.4c-5.2,5.9-10.6-7.7-15.1,1.7c4.3,0.7,9.9-1.5,13,1.7
			c-0.9,2.3,1.9,5.4-2.2,6.7l2.2,1.7c0.2-3.9-1.1-8.1,4.3-10.1h2.2c-3.4-3-8.7-5.5-6.5-10.1H964.3z"/>
		<path class="st0" d="M1355.7,344.4c4.1,1.2,1.3,4.4,2.2,6.7h2.2v-10.1h-2.2C1358.7,342.6,1356.8,343.4,1355.7,344.4z"/>
		<path class="st0" d="M830.3,347.8c-2.8-2.7-11.5-1-8.6-6.7v6.7H830.3z"/>
		<path class="st0" d="M851.9,347.8c3,0.7,6.9-1.5,8.6,1.7c1.5-3.2,5.6-1,8.6-1.7l-6.5-5C863.6,349,854.3,343.8,851.9,347.8z"/>
		<path class="st0" d="M739.5,349.5l2.2,1.7c2.2-2.7,8.9-4.2,6.5-8.4C741.8,341.1,742.5,347.1,739.5,349.5z"/>
		<polygon class="st0" points="441.1,354.5 443.2,344.4 441.1,347.8 		"/>
		<path class="st0" d="M998.9,349.5c3.2-0.7,4.3,2.3,6.5,3.3l4.3-3.3c1.3,2,4.1,1.7,6.5,1.7c0.9-1.5-1.1-2.3-2.2-3.4l-2.2,1.7
			C1006.5,345.3,1005.4,347.8,998.9,349.5z"/>
		<path class="st0" d="M918.9,347.8c8-0.5,15.6,2.8,26,1.7l-2.2-3.4C934.3,351.1,927.6,343.4,918.9,347.8z"/>
		<path class="st0" d="M877.8,352.8c-0.6-2.3,5.2-4.8,0-6.7V352.8z"/>
		<path class="st0" d="M1117.8,354.5c-2.8-3.4-11.5,0.8-10.8-5l-2.2,6.7c3.5-0.8,6.7-2.3,10.8-1.7c1.1,1,3,1.8,2.2,3.4l6.5-1.7
			l-2.2-8.4L1117.8,354.5z"/>
		<path class="st0" d="M1022.7,349.5c5.6,0.7,11.7,6,17.3,1.7l-2.2-1.7C1031.8,356.2,1028.1,343.6,1022.7,349.5z"/>
		<path class="st0" d="M983.8,354.5c-0.9-1.5,1.1-2.3,2.2-3.4h4.3l-2.2-3.4l-6.5,1.7L983.8,354.5z"/>
		<path class="st0" d="M774,349.5c4.3,5.4,4.3,12.4,6.5,18.4c5.6-6.7-3.2-14.9-2.2-20.1C776.4,347.1,775.3,348.6,774,349.5z"/>
		<path class="st0" d="M1128.6,357.8c4.5-1,8-4.2,6.5-8.4C1133,352.1,1126.3,353.6,1128.6,357.8z"/>
		<polygon class="st0" points="849.7,356.2 847.6,349.5 847.6,354.5 		"/>
		<polygon class="st0" points="1258.4,357.8 1258.4,351.1 1256.2,352.8 		"/>
		<path class="st0" d="M761.1,359.5c2.6-2.7,2.4-6.4-2.2-8.4C763,352.8,760.2,356.8,761.1,359.5z"/>
		<polygon class="st0" points="672.4,357.8 670.3,351.1 670.3,357.8 		"/>
		<path class="st0" d="M1219.5,357.8c-1.9,0.7-3-0.8-4.3-1.7l-2.2,1.7l-4.3-3.4c-1.7,3.2-5.6,1-8.7,1.7c0,1.8,0.4,4-2.2,5
			c10.8,2.7,16-7.7,23.8,1.7c5.8-3.4,6.3-5.9,2.2-10.1C1224.6,355.3,1220.7,356.2,1219.5,357.8z"/>
		<path class="st0" d="M1156.8,359.5c3.4-1.3,1.5-5.7,6.5-5c2.6,1,2.2,3.2,2.2,5h2.2c2.6-4.4-4.1-4.7-6.5-6.7l-10.8,1.7
			L1156.8,359.5z"/>
		<path class="st0" d="M657.3,371.2c-3.2-7.2,6.5-12.4,0-18.4C657.3,356.8,657.3,365.2,657.3,371.2z"/>
		<path class="st0" d="M464.9,364.5c-2.8,1-2.2,3.2-2.2,5c3.2-3.2,3.2-12.2,0-16.8C463.6,356.8,460.7,361.5,464.9,364.5z"/>
		<path class="st0" d="M1236.7,359.5h-4.3c-0.9,1.5,1.1,2.3,2.2,3.4c1.3-0.8,2.4-2.3,4.3-1.7c1.1,1,3,1.8,2.2,3.4
			c2.4-1.8,4.5-4.3,8.6-3.4c3.2,2.7,13,8.2,6.5,13.4c2.6,1.7,2.2-7.5,2.2-11.7c-8.4,4.2-10.4-8.5-17.3-1.7l-2.2-6.7
			C1238.9,356.3,1239.3,358.5,1236.7,359.5z"/>
		<path class="st0" d="M1178.4,362.9c2.4-4.2,9.7-4.4,13-1.7l2.2-6.7C1186.2,361.2,1181,354.5,1178.4,362.9z"/>
		<path class="st0" d="M21.6,362.9c2.2,4.2-4.3,11.9,0,16.7c2.4-2.7,2.2-18.6,2.2-25.1C22.7,357.2,20.8,359.7,21.6,362.9z"/>
		<path class="st0" d="M1842.2,364.5c-3-0.8-3-4.2,0-5l-4.3,5H1842.2z"/>
		<path class="st0" d="M136.2,366.2l2.2,1.7h2.2v-6.7h-2.2C138.4,363,138.8,365.2,136.2,366.2z"/>
		<path class="st0" d="M1091.9,362.9c-0.9,1.5,1.1,2.3,2.2,3.3l-1.9-0.2l-2.2,41.9l1.9,0.2c4.1-9.1,1.3-32.3,2.2-45.2H1091.9z"/>
		<path class="st0" d="M1009.7,416.5c-4.1-2.2,2.2-5,0-8.4l-2.2-45.2v55.3L1009.7,416.5z"/>
		<polygon class="st0" points="733,371.2 737.3,364.5 733,364.5 		"/>
		<path class="st0" d="M1591.3,367.9v-1.7c-11.5-0.7-6.5,6.9-10.8,11.7c10.8,3.7,10.6-12.2,19.5-1.7c0.9-3.4,7.8-6.7,2.2-10.1
			C1597.8,365.5,1595.5,372.9,1591.3,367.9z"/>
		<path class="st0" d="M1063.8,372.9l2.2,1.7l-2.2-8.4C1063.1,368.6,1069,371.1,1063.8,372.9z"/>
		<path class="st0" d="M711.4,379.6l-2.2-11.7C701.8,372.2,713.7,374.7,711.4,379.6z"/>
		<path class="st0" d="M849.7,381.3l2.2-11.7C843.5,371.6,852.7,376.1,849.7,381.3z"/>
		<path class="st0" d="M1407.6,379.6h-4.3l6.5,6.7h2.2v-10h-2.2C1410.6,377.8,1408.6,378.6,1407.6,379.6z"/>
		<path class="st0" d="M1046.5,396.4c-3.3-7.7,6.5-13.4,0-20.1C1046.5,385,1046.5,387.5,1046.5,396.4z"/>
		<path class="st0" d="M1576.2,404.7c0.9-2.3-1.9-5.5,2.2-6.7c-4.1-1.7-1.3-5.7-2.2-8.4c4.1-2.2-2.2-5,0-8.4V404.7z"/>
		<polygon class="st0" points="84.3,391.3 86.5,381.3 84.3,384.6 		"/>
		<path class="st0" d="M1714.6,386.3v6.7c3.7-2.5,9.5-6.7,4.3-10.1C1716.5,382.3,1713.7,384.5,1714.6,386.3z"/>
		<path class="st0" d="M1554.6,399.7v3.3c3.2-0.7,4.3,2.4,6.5,3.4v8.4l2.2-30.1C1550.5,388.7,1570.6,398.2,1554.6,399.7z"/>
		<path class="st0" d="M1476.7,393c-1.1-2.5-4.3-6.4,0-8.4C1472.4,386.6,1475.7,390.5,1476.7,393z"/>
		<path class="st0" d="M1063.8,399.7c6.5-3.4-3.2-5.7,0-10.1V399.7z"/>
		<polygon class="st0" points="73.5,399.7 75.7,391.3 73.5,393 		"/>
		<path class="st0" d="M1814.1,398l6.5-3.4C1817.3,392.3,1811.9,393.9,1814.1,398z"/>
		<path class="st0" d="M1801.1,398c3.5,1.2,1.5,5.7,6.5,5l2.2-1.7C1801.3,403.2,1809.1,391.3,1801.1,398z"/>
		<path class="st0" d="M1753.5,406.4h2.2c-4.3-2.2-1.1-5.9,0-8.4C1751.6,399.7,1754.4,403.7,1753.5,406.4z"/>
		<path class="st0" d="M1861.6,413.1c-2.8-0.7,1.3-7.4,0-13.4C1858.4,401.6,1858.4,409.8,1861.6,413.1z"/>
		<path class="st0" d="M1509.2,414.8h4.3c-7.8-3-3-10.1-4.3-15.1C1505.9,403.7,1505.9,410.8,1509.2,414.8z"/>
		<path class="st0" d="M942.7,411.4c3.2,2.4-0.2-7.4-2.2-11.7C941.4,403.7,938.6,408.4,942.7,411.4z"/>
		<path class="st0" d="M1667,403.1c2-0.7,3,0.8,4.3,1.7c-2.4,7.9,4.1,12.4-4.3,18.4c3.2,2.8,3.2,8.7,0,11.7c2-0.7,3,0.8,4.3,1.7
			c0.9,1.5-1.1,2.4-2.2,3.4l2.2,1.7c0-4.7-5-14.1,0-20.1c2.6-3.5-2.8-10.9,2.2-15.1C1669.6,405.1,1672.6,398,1667,403.1z"/>
		<rect x="1407.6" y="404.7" class="st0" width="2.2" height="6.7"/>
		<path class="st0" d="M1891.9,419.8l2.2,1.7c-0.6-6.5-0.6-8.5,0-15.1C1889.9,408.3,1892.8,415.5,1891.9,419.8z"/>
		<polygon class="st0" points="1018.4,411.4 1024.9,406.4 1018.4,409.8 		"/>
		<path class="st0" d="M467,408.1c2,7.4,3.5-0.2,8.6,0H467z"/>
		<path class="st0" d="M1699.5,411.4c4.1,3.3,1.3,9,2.2,13.4c4.1-0.2,1.3-5.7,2.2-8.4c-5.6-1.9,2.6-3.5,0-6.7
			C1702.5,410.6,1701.4,412.1,1699.5,411.4z"/>
		<polygon class="st0" points="1143.8,416.5 1145.9,409.8 1143.8,409.8 		"/>
		<path class="st0" d="M564.3,418.1l2.1-1.7c-5.2-1.7,1.5-2.5,0-5C566.7,414,563,415.1,564.3,418.1z"/>
		<path class="st0" d="M1091.9,436.6c-3.2-7.7,6.5-13.4,0-20.1V436.6z"/>
		<polygon class="st0" points="897.3,426.5 897.3,416.5 895.1,418.1 		"/>
		<path class="st0" d="M1883.2,424.8c2.4,0,5.2,0.3,6.5-1.7c-6.1,1-2.4-5.5-6.5-5V424.8z"/>
		<polygon class="st0" points="981.6,426.5 983.8,419.8 981.6,421.5 		"/>
		<polygon class="st0" points="1896.2,428.2 1900.5,421.5 1896.2,424.8 		"/>
		<path class="st0" d="M1483.2,423.2l2.2,6.7L1483.2,423.2z"/>
		<polygon class="st0" points="1007.6,441.6 1007.6,423.2 1005.4,426.5 		"/>
		<path class="st0" d="M566.5,439.9c-0.6-5.7,1.1-13.1,0-16.8C566.9,428.9,565.4,436.1,566.5,439.9z"/>
		<polygon class="st0" points="871.3,433.2 873.5,424.8 871.3,426.5 		"/>
		<path class="st0" d="M689.7,429.9c4.1,1.2,1.3,4.4,2.2,6.7l2.2-11.7C694.9,427.4,691,428.2,689.7,429.9z"/>
		<path class="st0" d="M657.3,428.2v6.7l4.3-10.1C659.2,424.2,656.4,426.4,657.3,428.2z"/>
		<polygon class="st0" points="242.2,431.5 240,424.8 240,431.5 		"/>
		<path class="st0" d="M1563.2,431.5c-1.1,1-3,1.8-2.2,3.4h2.2l-2.2-8.4C1561.1,428.4,1560.4,430.5,1563.2,431.5z"/>
		<path class="st0" d="M1033.5,458.4c0.9-4.9-3-12.7,6.5-13.4c-1.3,0.8-2.4,2.3-4.3,1.7c-5-5.9,0.4-14.9-2.2-20.1
			C1033.5,439.3,1033.5,445.6,1033.5,458.4z"/>
		<path class="st0" d="M1063.8,428.2c1.3,7.9-5.6,19.3,0,28.5c-2.8,1-2.2,3.2-2.2,5c10.8-6-3.5-14.7,4.3-21.8
			c-5.6-3.5,2.6-6.9,0-11.7H1063.8z"/>
		<polygon class="st0" points="1857.3,439.9 1855.1,433.2 1857.3,434.9 		"/>
		<path class="st0" d="M964.3,433.2c2.6,2.7,2.2,6.5,2.2,10.1C971.2,440.1,965.4,434.9,964.3,433.2z"/>
		<path class="st0" d="M1900.5,434.9l-4.3,15.1L1900.5,434.9z"/>
		<polygon class="st0" points="895.1,444.9 897.3,436.6 895.1,438.2 		"/>
		<path class="st0" d="M1022.7,488.5c0,21.3,0,48.9,0,70.4c4.1-7.5,1.3-22.3,2.2-30.2c-2.2-5.7-2.2-11.1,0-16.7
			c-7.8-14.7,6.5-27.8-4.3-43.6c3.2-9,3.2-21.1,0-30.2C1021.4,455,1018.6,470.8,1022.7,488.5z"/>
		<path class="st0" d="M1909.2,451.7l6.5,1.7l4.3-13.4C1912.2,440.9,1917.8,449.3,1909.2,451.7z"/>
		<polygon class="st0" points="871.3,461.7 873.5,443.3 871.3,455 		"/>
		<path class="st0" d="M864.9,443.3l-2.1,21.8L864.9,443.3z"/>
		<path class="st0" d="M564.3,480.1c4.1,4,1.3,10,2.1,15.1c0-15.2,0-34.5,0-51.9C559.1,455.7,571.7,467.7,564.3,480.1z"/>
		<path class="st0" d="M1684.3,458.4c0.2,4.2-1.7-6.5,2.2-8.4c-3-0.8-3-4.2,0-5C1683.7,447.3,1682.4,455.2,1684.3,458.4z"/>
		<polygon class="st0" points="960,451.7 962.2,444.9 960,444.9 		"/>
		<path class="st0" d="M1662.7,481.8c2.6,1,2.2,3.2,2.2,5c1.9-0.7,3,0.8,4.3,1.7l-2.2,1.7c0.4,7.7-1.1,13.7,0,23.5l-2.2,1.7
			c7.8,5.2,3,14.4,4.3,21.8c-1.7-9,4.7-11.1,8.7-18.4l4.3,13.4c1.1,0.2-3.2-11.4,6.5-13.4c-1.3-1.7-5.2-2.5-4.3-5
			c1.5-3.2,5.6-1,8.6-1.7c4.1-4,1.3-10,2.2-15.1l-8.7,11.7c-4.5-3.4,0.2-10.1-4.3-13.4c-1.9-1-16,2.9-13-5l2.2-1.7
			c-10.6-3.2,2-10.1-2.2-16.8c-1.1-4.4-3-8.6-2.2-13.4c6.7-1.8,4.8-8.9,2.2-11.7C1663.8,455.2,1671.3,472.1,1662.7,481.8z"/>
		<polygon class="st0" points="1543.8,458.4 1545.9,448.3 1543.8,453.3 		"/>
		<path class="st0" d="M1589.2,468.4v-15.1C1592.2,459.4,1583.1,463.2,1589.2,468.4z"/>
		<polygon class="st0" points="966.5,461.7 968.6,453.3 966.5,455 		"/>
		<polygon class="st0" points="1094,468.4 1091.9,456.7 1091.9,466.7 		"/>
		<path class="st0" d="M183.8,461.7c6.5,2.7-3.2,4.5,0,8.4l6.5-8.4C187,462.9,185.9,457.7,183.8,461.7z"/>
		<path class="st0" d="M1107,476.8l-2.2-13.4C1110.5,468.4,1100.5,471.9,1107,476.8z"/>
		<path class="st0" d="M1805.4,473.4c3,0.3,6.3-4,8.7,0v1.7h2.2v-3.4c-5.2,0.3-4.3-4-4.3-6.7
			C1806.5,465.2,1805.4,469.9,1805.4,473.4z"/>
		<path class="st0" d="M1561.1,471.8c4.1,4.2-2.2-2.7,0-5V471.8z"/>
		<path class="st0" d="M964.3,468.4c4.1,1.2,1.3,4.4,2.2,6.7v-8.4L964.3,468.4z"/>
		<path class="st0" d="M1574,488.5c-6.5-6.7,3.2-12.4,0-20.1C1570.8,474.1,1570.8,482.8,1574,488.5z"/>
		<path class="st0" d="M56.2,478.5c1.1,2-0.6,7.7,0,11.7c3.5-3.2,1.1-9.7,8.7-10v-3.4c-2-0.7-3,0.8-4.3,1.7
			c-7.3-3.3,5.2-6.7-2.2-10.1C57.5,471.8,60.3,476.1,56.2,478.5z"/>
		<path class="st0" d="M205.4,471.8c7.4,5-5.2,10,2.2,15.1l-2.2,1.7l4.3-16.8H205.4z"/>
		<path class="st0" d="M1373,495.2c4.1,3.4,1.3,9.1,2.2,13.4v-35.2C1374.3,478.6,1377.1,488.8,1373,495.2z"/>
		<path class="st0" d="M862.7,490.2c0.9-5-2-11.1,2.1-15.1l-2.1-1.7V490.2z"/>
		<path class="st0" d="M216.2,473.4c-1.1,4.2,5.4,7.6-2.2,10.1C217.1,481.8,230.5,473.4,216.2,473.4z"/>
		<path class="st0" d="M1729.7,503.6c6.5-2.7-3.2-4.7,0-8.4l2.2-20.1C1732.8,485.2,1723.2,493.7,1729.7,503.6z"/>
		<path class="st0" d="M1543.8,483.5c4.3-3.5-2.2-4.2,0-8.4V483.5z"/>
		<polygon class="st0" points="1355.7,481.8 1357.8,475.1 1355.7,480.1 		"/>
		<path class="st0" d="M998.9,512c-2.8,1-2.2,3.2-2.2,5l2.2-1.7l-2.2-40.2C991.1,485.3,998,499.6,998.9,512z"/>
		<path class="st0" d="M142.7,483.5l2.2-1.7c-3.2-1.3-3.2-5.5,0-6.7C142.5,476.1,138.2,480.8,142.7,483.5z"/>
		<path class="st0" d="M1078.9,506.9c4.8-9.2-0.6-21.6,2.2-30.2C1077,487.8,1079.8,496.9,1078.9,506.9z"/>
		<path class="st0" d="M1035.7,500.2c0.4-7.4-1.1-16.4,0-21.8C1034.6,483.8,1036.1,492.9,1035.7,500.2z"/>
		<polygon class="st0" points="873.5,486.8 871.3,478.5 871.3,485.2 		"/>
		<path class="st0" d="M237.8,495.2l6.5-5c4.1,1.2,1.3,4.4,2.1,6.7c5.6-5.7-1.3-11.1-2.1-16.8C240,484.3,244.5,491.7,237.8,495.2z"
			/>
		<path class="st0" d="M229.2,488.5c0.9-1.4,7.8-5.7,2.2-8.4L229.2,488.5z"/>
		<path class="st0" d="M1401.1,488.5c1.9-1,5.6-3.9,2.2-6.7L1401.1,488.5z"/>
		<path class="st0" d="M1794.6,488.5c-1.3,15.1-6.3,29.1-4.3,45.2c0.9-5,7.8-10.1,2.2-15.1c3.7-9.7-3.5-17.8,4.3-26.8
			c0.4-3.3-0.6-6.4-4.3-8.4h-2.2L1794.6,488.5z"/>
		<path class="st0" d="M1109.2,503.6c-2.8,1-2.2,3.2-2.2,5c4.1-5.7-1.3-10.6,2.2-16.8l-2.2-8.4
			C1107.9,490.2,1105.1,497.9,1109.2,503.6z"/>
		<path class="st0" d="M1682.2,491.9c0-1.8-0.7-4,2.2-5l-2.2-1.7V491.9z"/>
		<polygon class="st0" points="1509.2,495.2 1509.2,485.2 1507,485.2 		"/>
		<rect x="977.3" y="485.2" class="st0" width="2.2" height="6.7"/>
		<path class="st0" d="M1539.4,503.6c2.6,1,2.2,3.2,2.2,5l-4.3,3.3l6.5,5c0-8.1,0-20.1,0-30.2
			C1542.5,492.5,1547.2,500.1,1539.4,503.6z"/>
		<path class="st0" d="M90.8,498.6c7.4-0.5,4.5-8.9,2.2-11.7L90.8,498.6z"/>
		<path class="st0" d="M1528.6,510.3l2.2,1.7c-4.1,9.4-11-6-15.1,3.3c2.2-3.3,6.3,0.7,8.6,1.7l-4.3,5c3.2-0.2,4.8,2.7,8.7,1.7
			c11.9-10.7-5.4-24.5,6.5-35.2C1527.3,494.5,1533.4,501.9,1528.6,510.3z"/>
		<path class="st0" d="M1011.9,488.5l-2.2,30.2L1011.9,488.5z"/>
		<path class="st0" d="M1554.6,496.9c3.2-1.4,3.2-5.5,0-6.7V496.9z"/>
		<rect x="1130.8" y="490.2" class="st0" width="2.2" height="10.1"/>
		<path class="st0" d="M1094,501.9v-11.7C1088.4,493.7,1096.6,497,1094,501.9z"/>
		<path class="st0" d="M77.8,503.6l2.2,1.7l-2.2,1.7c5.9,3.2-1.9,6,0,10.1l2.2-26.8C72.7,494.5,85.2,499.2,77.8,503.6z"/>
		<polygon class="st0" points="843.2,498.6 841.1,493.5 838.9,493.5 		"/>
		<polygon class="st0" points="810.8,527 810.8,495.2 806.5,515.3 		"/>
		<path class="st0" d="M1513.5,506.9c7.4-0.8,5.2-4.7,8.6-8.4l-2.2-1.7C1522.2,501.4,1517,503.9,1513.5,506.9z"/>
		<rect x="1431.3" y="496.9" class="st0" width="2.2" height="10"/>
		<path class="st0" d="M726.5,500.2c-5.2,1.8,0.4,4.4,0,6.7c2.6-1.8,0-6-2.2-8.4L726.5,500.2z"/>
		<path class="st0" d="M56.2,498.6c1.1,1,3,1.9,2.2,3.4c-1.3,2-4.1,1.7-6.5,1.7c10.8,7.4,9.7,20.4,6.5,30.2
			C61.4,522.8,63.1,508.8,56.2,498.6z"/>
		<path class="st0" d="M1855.1,518.7c5.6-6-1.3-12.4-2.2-18.4C1847.3,506.3,1858.8,511.1,1855.1,518.7z"/>
		<polygon class="st0" points="1680,512 1680,500.2 1677.8,501.9 		"/>
		<rect x="1353.5" y="500.2" class="st0" width="2.2" height="6.7"/>
		<path class="st0" d="M142.7,515.3c0.9-1.5-1.1-2.3-2.2-3.3c2.6-1,2.2-3.2,2.2-5l-2.2,1.7c-6.5-3.2,3-5,2.2-8.4
			C134.3,504.6,142,510.1,142.7,515.3z"/>
		<polygon class="st0" points="99.5,517 103.8,500.2 99.5,510.3 		"/>
		<path class="st0" d="M875.7,520.3c0-4,0-12.4,0-18.4V520.3z"/>
		<path class="st0" d="M1117.8,503.6l2.2,11.7L1117.8,503.6z"/>
		<path class="st0" d="M1035.7,513.6c-4.1-1.3-1.3-4.4-2.2-6.7c1.3-0.8,2.4-2.3,4.3-1.7l-2.2-1.7l-2.2,11.7L1035.7,513.6z"/>
		<path class="st0" d="M1145.9,513.6c5.6-2.7-1.3-5.7-2.2-8.4L1145.9,513.6z"/>
		<path class="st0" d="M566.5,533.7c0-7.4,0-19.1,0-28.5C566.5,512.6,566.5,524.4,566.5,533.7z"/>
		<path class="st0" d="M1057.3,506.9c4.1,7.4,1.3,16.7,2.2,25.1v-25.1H1057.3z"/>
		<path class="st0" d="M709.2,506.9l2.2,5L709.2,506.9z"/>
		<path class="st0" d="M1470.3,515.3c2.4,0,5.2-0.5,6.5,1.7c0.9-2.4-1.9-5.5,2.2-6.7l-2.2-1.7L1470.3,515.3z"/>
		<path class="st0" d="M88.7,522c3.2-1.9,3.2-10.1,0-13.4C85.4,514,95.1,517.7,88.7,522z"/>
		<path class="st0" d="M1133,525.4c-3.2-5.5,6.5-9.1,0-13.4V525.4z"/>
		<path class="st0" d="M242.2,530.4c5.8,3.2-1.9,6,0,10.1c0.9-8,7.8-19.1,2.2-28.5C238.7,518.7,248.6,523.8,242.2,530.4z"/>
		<polygon class="st0" points="897.3,520.3 895.1,513.6 895.1,520.3 		"/>
		<polygon class="st0" points="1781.6,522 1781.6,515.3 1779.4,520.3 		"/>
		<polygon class="st0" points="1375.1,525.4 1375.1,518.7 1373,523.7 		"/>
		<path class="st0" d="M41.1,525.4l2.2,1.7v-8.4C39.1,519.8,41.9,523,41.1,525.4z"/>
		<path class="st0" d="M1161.1,532.1c-0.7-4,5.2-8.2,0-11.7V532.1z"/>
		<path class="st0" d="M1048.6,555.5c7.4-11.7-5.2-23.5,2.2-35.2L1048.6,555.5z"/>
		<path class="st0" d="M73.5,542.1h2.2c0-1.8,0.4-4-2.2-5c4.5-1.5,4.8-3.5,6.5-6.7c-2.4-2.2,1.3-6.4,0-10.1
			C69.2,526.9,75.5,532.7,73.5,542.1z"/>
		<rect x="994.6" y="522" class="st0" width="2.2" height="8.4"/>
		<path class="st0" d="M138.4,525.4c2.4,4,5.6-0.5,8.6,0l-2.2-3.4C142,522.2,138.2,523.5,138.4,525.4z"/>
		<path class="st0" d="M873.5,547.1c1.9-0.7,3,0.8,4.3,1.7v5c1.5-11.4-2.8-20.6-2.2-30.2L873.5,547.1z"/>
		<path class="st0" d="M97.3,525.4c-0.9,1.5,1.1,2.3,2.2,3.3c-6.5,4,3.3,6.7,0,11.7c2.6-5,4.5-11.9,0-16.8L97.3,525.4z"/>
		<path class="st0" d="M86.5,528.7c4.1,1.2,1.3,4.4,2.2,6.7c5.8-3.5-3-5.7,0-10.1C89.5,526.9,87.6,527.7,86.5,528.7z"/>
		<path class="st0" d="M1528.6,533.7c5.2-1.8-0.6-4.4,0-6.7V533.7z"/>
		<path class="st0" d="M1537.3,535.4c5.2,0.3,4.3-4,4.3-6.7C1538.4,528.9,1539.2,533.2,1537.3,535.4z"/>
		<polygon class="st0" points="1727.6,537.1 1734,530.4 1727.6,535.4 		"/>
		<path class="st0" d="M140.5,540.4c-5.2,1.8,0.4,4.4,0,6.7c-5,7.5,0.4,18.3-2.2,25.1l2.2,1.7l-2.2,1.7c5.2-6.4,5.6-16.1,2.2-25.1
			c2.4-2.5,0.9-6.4,4.3-8.4c-3.2-3-3.2-8.9,0-11.7C137.1,530.2,141.6,538.9,140.5,540.4z"/>
		<polygon class="st0" points="1491.9,542.1 1491.9,532.1 1489.7,532.1 		"/>
		<path class="st0" d="M224.9,537.1h4.3v-5C227.9,533.7,224,534.6,224.9,537.1z"/>
		<path class="st0" d="M121.1,540.4l-4.3-3.4c-6.7,2.5-4.1,12.6-10.8,15.1c3.2,5.7,8.6,3.5,15.1,1.7c3,1.9,2.6,5,6.5,6.7
			c-1.3,1.7-5.2,2.5-4.3,5l6.5-5c1.1,1,3,1.8,2.2,3.4h2.2c-0.9-2.7,2-6.7-2.2-8.4c2.6-1,2.2-3.2,2.2-5l-2.2-1.7c0.9,2.5-3,3.4-4.3,5
			c-14.3-3.2,0.2-14.4-4.3-20.1C122.4,536.1,125.2,539.1,121.1,540.4z"/>
		<path class="st0" d="M1580.5,548.8c5.2-1,5.6-8.5,2.2-11.7l-4.3-1.7C1585.7,539.8,1582.9,543.3,1580.5,548.8z"/>
		<path class="st0" d="M998.9,547.1c5.8-3.5-3-5.7,0-10.1V547.1z"/>
		<rect x="1370.8" y="538.8" class="st0" width="2.2" height="6.7"/>
		<path class="st0" d="M568.6,538.8l-2.2,25.1L568.6,538.8z"/>
		<path class="st0" d="M1591.3,577.3c6.7-7.5,3.5-19.3,4.3-28.5l-2.2-8.4L1591.3,577.3z"/>
		<polygon class="st0" points="1163.2,548.8 1161.1,540.4 1161.1,548.8 		"/>
		<path class="st0" d="M1721.1,545.5c-2.8,1-2.2,3.2-2.2,5h2.2l-2.2-8.4C1718,543.6,1720,544.5,1721.1,545.5z"/>
		<polygon class="st0" points="1693,548.8 1695.1,542.1 1693,542.1 		"/>
		<path class="st0" d="M255.1,542.1l2.2,8.4L255.1,542.1z"/>
		<path class="st0" d="M147,548.8l2.2,1.7l2.1-8.4C148.1,542.3,149,546.6,147,548.8z"/>
		<polygon class="st0" points="1567.6,560.5 1571.9,543.8 1567.6,553.8 		"/>
		<path class="st0" d="M1429.2,553.8c-0.6-2.3,5.2-4.8,0-6.7V553.8z"/>
		<rect x="931.9" y="547.1" class="st0" width="2.2" height="6.7"/>
		<path class="st0" d="M88.7,560.5l2.2,1.7l-2.2,1.7l2.2,1.7v-18.4C86.7,549,89.5,556.2,88.7,560.5z"/>
		<path class="st0" d="M1373,590.7c-1.3-15.6,2.6-26.8,0-41.9C1373,564.9,1373,576.6,1373,590.7z"/>
		<path class="st0" d="M1366.5,573.9c-4.1,1.2-1.3,4.4-2.2,6.7c7.4-8-5.2-19.1,2.2-28.5l-2.2-3.4
			C1358.7,557.2,1365.6,565.6,1366.5,573.9z"/>
		<path class="st0" d="M1388.1,560.5c0-0.5,0-4.7,0-10C1385.1,553,1385.1,558,1388.1,560.5z"/>
		<polygon class="st0" points="1096.2,560.5 1094,550.5 1094,560.5 		"/>
		<rect x="996.7" y="550.5" class="st0" width="2.2" height="6.7"/>
		<polygon class="st0" points="281.1,558.9 278.9,550.5 276.8,550.5 		"/>
		<path class="st0" d="M1081.1,553.8c6.5,6-3.2,11.2,0,18.4C1081.5,567.6,1089.9,557.2,1081.1,553.8z"/>
		<path class="st0" d="M1442.2,565.6c5.6-1.8-2.8-3.5,0-6.7V565.6z"/>
		<path class="st0" d="M1109.2,587.3c1.1-5.9,4.3-13.1,0-18.4c5.8-3.2-1.9-6,0-10C1102.7,568.2,1112.4,576.8,1109.2,587.3z"/>
		<polygon class="st0" points="1606.5,573.9 1608.6,560.5 1606.5,568.9 		"/>
		<polygon class="st0" points="317.8,570.6 315.7,560.5 315.7,570.6 		"/>
		<polygon class="st0" points="1807.6,568.9 1809.7,562.2 1807.6,567.2 		"/>
		<path class="st0" d="M1554.6,590.7c-0.9-11.5,1.9-18.1-2.2-28.5C1556.5,570.6,1553.7,581.3,1554.6,590.7z"/>
		<path class="st0" d="M1065.9,572.3c3.5-2.5,2.6-7.5,0-10C1071.1,565.6,1064.2,568.1,1065.9,572.3z"/>
		<polygon class="st0" points="1022.7,573.9 1024.9,563.9 1022.7,567.2 		"/>
		<path class="st0" d="M1539.4,580.6v-11.7C1539.9,572.9,1534.3,577.1,1539.4,580.6z"/>
		<rect x="1427" y="572.3" class="st0" width="2.2" height="20.1"/>
		<path class="st0" d="M1582.7,575.6l-4.3,18.4L1582.7,575.6z"/>
		<path class="st0" d="M1148.1,607.4c-5.6,3.5,2.6,6.9,0,11.7c0-12.4,0-29.1,0-43.5C1144.9,585.2,1144.9,597.7,1148.1,607.4z"/>
		<polygon class="st0" points="304.9,582.3 307,575.6 304.9,575.6 		"/>
		<polygon class="st0" points="1565.4,589 1567.6,579 1565.4,582.3 		"/>
		<rect x="1022.7" y="580.6" class="st0" width="2.2" height="6.7"/>
		<path class="st0" d="M1375.1,595.7c-1.3-0.8-2.4-2.3-4.3-1.7c-0.2,5.7,13.8,1.8,8.6,10.1h4.3c-0.9-6.7-7.8-13.4-2.2-20.1
			L1375.1,595.7z"/>
		<polygon class="st0" points="1362.2,590.7 1364.3,584 1362.2,585.7 		"/>
		<rect x="1081.1" y="584" class="st0" width="2.2" height="6.7"/>
		<path class="st0" d="M1065.9,584c0.9,2.7-1.9,6.7,2.2,8.4V584H1065.9z"/>
		<path class="st0" d="M99.5,594c2.6,1,2.2,3.2,2.2,5h2.2v-13.4h-2.2C100.7,588.4,103.6,592.4,99.5,594z"/>
		<path class="st0" d="M1394.6,599.1c-7.4-4,5.2-7.7-2.2-11.7v11.7H1394.6z"/>
		<rect x="1158.9" y="587.3" class="st0" width="2.2" height="13.4"/>
		<polygon class="st0" points="570.8,594 568.6,587.3 568.6,594 		"/>
		<path class="st0" d="M1587,614.1c3.2,6-6.5,10,0,15.1c-1.3,0.8-2.4,2.3-4.3,1.7c8.4,6-2.2,11.9,4.3,18.4
			c-4.5-8.4,9.5-10.9,2.2-18.4l2.2-1.7c-1.9,0.7-3-0.8-4.3-1.7c4.5-11.7-0.2-28.6,4.3-38.5C1590.1,595.9,1585.1,606.8,1587,614.1z"
			/>
		<polygon class="st0" points="493,595.7 495.1,589 493,590.7 		"/>
		<path class="st0" d="M140.5,619.2c13-8.5-6.5-18.1,0-30.1V619.2z"/>
		<path class="st0" d="M1109.2,614.1c0.9-4-1.9-8.9,2.2-11.7c-6.5-4,3.2-6.7,0-11.7C1110.3,597.2,1104,606.1,1109.2,614.1z"/>
		<path class="st0" d="M1048.6,629.2l2.2-38.5C1046.7,604.4,1049.7,614.3,1048.6,629.2z"/>
		<polygon class="st0" points="1024.9,615.8 1024.9,590.7 1022.7,600.8 		"/>
		<polygon class="st0" points="877.8,597.4 880,590.7 877.8,590.7 		"/>
		<path class="st0" d="M1174,605.8c7.4-4.4-5.2-9,2.2-13.4h-4.3L1174,605.8z"/>
		<rect x="1057.3" y="592.4" class="st0" width="2.2" height="6.7"/>
		<polygon class="st0" points="1552.4,600.8 1554.6,594 1552.4,595.7 		"/>
		<path class="st0" d="M1284.3,607.4c1.9-0.7,3,0.8,4.3,1.7c5.6-4.4-1.3-9.1-2.2-13.4L1284.3,607.4z"/>
		<path class="st0" d="M1364.3,625.9l2.2-28.5C1357,606.8,1369.5,616.5,1364.3,625.9z"/>
		<path class="st0" d="M570.8,597.4l-2.2,8.4L570.8,597.4z"/>
		<path class="st0" d="M1424.9,634.3c-6.5,6.2,3.2,15.7,0,25.1l4.3-25.1h2.2c1.5,2-7.8-6.4-4.3-11.7l2.2-1.7
			c0-4.4,0.2-12.7-2.2-18.4l2.2-3.4L1424.9,634.3z"/>
		<path class="st0" d="M1130.8,599.1c0.2,2,2,5.2,4.3,5C1130.6,603.4,1135.3,598.2,1130.8,599.1z"/>
		<path class="st0" d="M1667,615.8c-4.1-1.7-1.3-5.7-2.2-8.4c5.2-1.7-1.7-2.5,0-5v13.4H1667z"/>
		<rect x="153.5" y="602.4" class="st0" width="2.2" height="11.7"/>
		<rect x="1081.1" y="604.1" class="st0" width="2.2" height="8.4"/>
		<path class="st0" d="M1370.8,612.5l2.2,1.7c-4.1,1.7-1.3,5.7-2.2,8.4c3,0.3,6.3-4,8.6,0c-0.9,2.7,1.9,6.7-2.2,8.4l2.2,1.7l-6.5,5
			c-1.1-1-3-1.8-2.2-3.4c-1.3,4,3.5,14.4-4.3,18.4c-4.1-1.3-1.3-4.3-2.2-6.7c-7.3,8.4,5.2,16.7-2.2,25.1l2.2,1.7
			c-1.3,2-4.1,1.7-6.5,1.7c2-0.7,3,0.8,4.3,1.7c0.9,1.5-1.1,2.3-2.2,3.3c1.1,1,3,1.8,2.2,3.4c-2.4,1.8-4.5,4.4-8.6,3.3
			c-1.1-1-3-1.8-2.2-3.3l4.3-3.4c-7.8-3.2-3.2-15.2-4.3-20.1v-6.7l-4.3,11.7c1.9-0.7,3,0.8,4.3,1.7c-4.1,4.5-1.1,13.2-2.2,16.8
			l4.3,3.3c2.4,0,5.2,0.3,6.5-1.7c4.1,1.7,1.3,5.7,2.2,8.4c-4.1,1-6.5,4.5-10.8,5c5.8,6.7,5.4,12.9,2.2,21.8c-3.2,3.7,6.5,5.7,0,8.4
			c13.2-6.5-1.3-21.6,6.5-31.8h4.3c-0.9-2.5,3-3.3,4.3-5c1.3,6.9,6.5,15.1,2.2,21.8c-5.2-3-7.8-6.7-6.5-11.7
			c7.4,7.4-5.2,14.4,2.2,21.8c-1.1,1-3,1.8-2.2,3.4c5.4-1.5-2.2-11.4,6.5-11.7c3.2,5,3.2,13.4,0,18.4c-13.2,1.5-1.7,12.4-6.5,16.8
			c7.8,7.4,3,19.1,4.3,28.5c1.3-4-3.4-28.1,4.3-33.5l2.2,1.7c0-12.4,0-24.5,0-36.9c-3.3-4-3.3-11.1,0-15.1c1.3,2,4.1,1.7,6.5,1.7
			c-0.9-1.5,1.1-2.3,2.2-3.3c-3,0.7-7.1-1.5-8.6,1.7c-4.3-5.5,5.4-8.4,8.6-11.7c5.2,2.8,7.8,6.7,6.5,11.7c0.9-4-0.9-8.9-4.3-10
			l-2.2-1.7c5.4-4.7,7.6-10.1,6.5-16.8c-0.9,2.7,1.9,6.7-2.2,8.4c-1.9,0.7-3-0.8-4.3-1.7c2.6-8.2-2.8-12.6,2.2-20.1
			c-1.1-1-3-1.8-2.2-3.4c0,1.8,0.4,4-2.2,5c-6.7-0.7-4.3-7.2-8.7-10.1c2.2-1,3.3-4,6.5-3.4c-2.8-1-2.2-3.2-2.2-5
			c1.3-0.8,2.4-2.3,4.3-1.7c-5.2-1.7-2.2-4.9,0-8.4l2.2,1.7c-2.8-8,7.4-19.3-10.8-21.8C1373.2,608.3,1369.5,609.5,1370.8,612.5z"/>
		<path class="st0" d="M1729.7,612.5c-1.1-1-3-1.8-2.2-3.4l-2.2,6.7c-3.5-0.7,10.6-1,8.6-8.4L1729.7,612.5z"/>
		<rect x="1574" y="609.1" class="st0" width="2.2" height="15.1"/>
		<path class="st0" d="M1444.3,609.1l-2.2,6.7L1444.3,609.1z"/>
		<path class="st0" d="M1299.5,609.1l2.2,8.4L1299.5,609.1z"/>
		<path class="st0" d="M851.9,639.3h2.2c-8.2-10.9,5.8-18.6,2.2-30.2C854.9,619.2,849.9,630.2,851.9,639.3z"/>
		<path class="st0" d="M1323.2,624.2c-1.1,1-3,1.8-2.2,3.4l2.2,1.7c0-6,0-14.4,0-18.4C1320,612.6,1320,620.9,1323.2,624.2z"/>
		<path class="st0" d="M227,612.5c11.9,2.7-6.5,9.1,0,13.4c2.2-1,3.2-4,6.5-3.4c0.2-2.5-3.5-3.8-2.2-6.7c5.2-1.7-1.7-2.5,0-5
			C229.4,610.1,228.3,611.6,227,612.5z"/>
		<path class="st0" d="M1703.8,615.8c0.9,1.5-1.1,2.3-2.2,3.3l2.2,1.7l4.3-5H1703.8z"/>
		<path class="st0" d="M1011.9,625.9h2.2l-2.2-8.4C1014,620.2,1014,623.2,1011.9,625.9z"/>
		<rect x="1290.8" y="620.9" class="st0" width="2.2" height="8.4"/>
		<path class="st0" d="M214.1,622.5c9.5,3.7,0,9.5,2.2,15.1c-0.9-1.5,1.1-2.4,2.2-3.4h4.3c-6.7-1.4-3.5-8.9-4.3-13.4
			C216.4,620.2,215.3,621.7,214.1,622.5z"/>
		<path class="st0" d="M570.8,654.4c-7.4-10.7,5.2-21.1-2.2-31.8v31.8H570.8z"/>
		<path class="st0" d="M250.8,622.5l-2.2,11.7L250.8,622.5z"/>
		<path class="st0" d="M240,629.2c5.2-1.8-0.7-4.4,0-6.7V629.2z"/>
		<rect x="1158.9" y="624.2" class="st0" width="2.2" height="6.7"/>
		<path class="st0" d="M410.8,635.9c6.5-4-3.3-6.7,0-11.7V635.9z"/>
		<path class="st0" d="M1600,635.9c-0.9-1.5,1.1-2.3,2.2-3.4c-3.2-1.3-3.2-5.5,0-6.7C1596.7,627.7,1596.5,633.4,1600,635.9z"/>
		<path class="st0" d="M1351.3,634.3c0-1.9-0.7-4,2.2-5l-2.2-1.7l2.2-1.7C1349.4,626,1352.2,631.6,1351.3,634.3z"/>
		<path class="st0" d="M769.7,625.9c3.2,3.4,3.2,10,0,13.4C774.3,636.3,777.3,627,769.7,625.9z"/>
		<path class="st0" d="M207.6,649.3c0,1.5,0-11,0-16.8c1.3-0.8,2.4-2.3,4.3-1.7l-6.5-5L207.6,649.3z"/>
		<path class="st0" d="M1394.6,635.9h2.2l-4.3-8.4C1393.3,630.2,1390.5,634.3,1394.6,635.9z"/>
		<polygon class="st0" points="1688.6,639.3 1690.8,629.2 1688.6,632.6 		"/>
		<path class="st0" d="M1610.8,635.9c2.4-0.7,5.2,1.5,4.3,3.4v6.7c-0.6-4.4,2.2-9.9,4.3-15.1l-2.2-1.7
			C1619.9,633.6,1613.2,633.7,1610.8,635.9z"/>
		<rect x="1660.5" y="630.9" class="st0" width="2.2" height="16.8"/>
		<rect x="1277.8" y="630.9" class="st0" width="2.2" height="6.7"/>
		<path class="st0" d="M1001.1,644.3h2.2c2.2-5.9-4.3-8.2,0-13.4C999.1,632.7,1001.9,640,1001.1,644.3z"/>
		<path class="st0" d="M1014,664.4c4.1,1.2,1.3,4.4,2.2,6.7c0-1.8-0.6-4,2.2-5h2.2l-4.3-3.4c1.1-1,3-1.8,2.2-3.3l-2.2-1.7l4.3-3.3
			c-10.8-6.5-4.5-12.4-6.5-21.8C1014,645.3,1014,653.7,1014,664.4z"/>
		<path class="st0" d="M1561.1,637.6c-0.9,6.9,1.9,18.8-2.2,26.8c1.1,1,3,1.8,2.2,3.4c0.9,5.7-2,16.7,2.2,23.4
			c3.2-15.9-6.5-33.7,0-53.6l-4.3-3.4C1560,635.3,1561.9,636.1,1561.1,637.6z"/>
		<polygon class="st0" points="231.3,644.3 233.5,634.3 231.3,637.6 		"/>
		<polygon class="st0" points="893,642.6 897.3,635.9 893,639.3 		"/>
		<path class="st0" d="M1394.6,639.3c4.1,6.2,1.3,14.4,2.2,21.8h2.2c-4.1-1.7-1.3-5.7-2.2-8.4c0-2.3,0-9,0-13.4H1394.6z"/>
		<path class="st0" d="M1024.9,649.3c0,7.7-0.2,19.4,2.2,28.5v5c-0.9-17.4,11.2-26.5,0-43.6C1026.2,642.6,1029,647,1024.9,649.3z"/>
		<path class="st0" d="M1530.8,640.9c4.8,9.2-0.7,15.2,2.2,25.1h2.2C1527.8,657.9,1540.5,646.3,1530.8,640.9z"/>
		<polygon class="st0" points="131.9,651 136.2,640.9 131.9,644.3 		"/>
		<path class="st0" d="M1597.8,662.7c6.9-4.4,4.8-10.9,4.3-18.4L1597.8,662.7z"/>
		<path class="st0" d="M1457.3,666.1c1.9-0.7,3,0.8,4.3,1.7c0.9-0.7-1.9-16.8,2.2-23.5L1457.3,666.1z"/>
		<path class="st0" d="M895.1,651c1.9-0.7,3,0.8,4.3,1.7v-8.4C897.1,646.1,893.8,647.8,895.1,651z"/>
		<rect x="88.7" y="644.3" class="st0" width="2.2" height="10.1"/>
		<path class="st0" d="M990.3,657.7c6.5-4-3.2-6.7,0-11.7V657.7z"/>
		<path class="st0" d="M1747,649.3c3,0.7,6.9-1.5,8.7,1.7v-3.4L1747,649.3z"/>
		<rect x="1329.7" y="647.7" class="st0" width="2.2" height="8.4"/>
		<path class="st0" d="M862.7,657.7c-7.3-3.3,5.2-6.7-2.2-10v10H862.7z"/>
		<polygon class="st0" points="1632.4,652.7 1630.3,649.3 1628.1,649.3 		"/>
		<path class="st0" d="M1615.1,662.7c-2.2-5.9,4.3-8.2,0-13.4V662.7z"/>
		<path class="st0" d="M908.1,659.4h2.2c-3-2.5-3-7.5,0-10.1C907.5,652,908.1,655.9,908.1,659.4z"/>
		<polygon class="st0" points="1163.2,667.8 1161.1,651 1158.9,661.1 		"/>
		<path class="st0" d="M1003.2,692.9c-0.7-4.4,5.2-8.5,0-13.4l2.2-28.5C1003,665.4,1003.2,677.1,1003.2,692.9z"/>
		<polygon class="st0" points="1437.8,659.4 1440,652.7 1437.8,652.7 		"/>
		<path class="st0" d="M1122.2,652.7c3,10.2-3,17.6,2.2,28.5c-4.3,5.7-4.3,11.1,0,16.8v-45.2H1122.2z"/>
		<path class="st0" d="M240,667.8c0.4-6.5,0.4-8.6,0-15.1V667.8z"/>
		<path class="st0" d="M1662.7,681.1c-7.4,9.6,5.2,23.5-2.2,35.2c4.1,1.2,1.3,4.4,2.2,6.7c-1.3,0.8-2.4,2.3-4.3,1.7l4.3,18.4
			c-2.8-8.5,2.6-20.9-2.2-30.2l4.3-8.4c-3.2-15.8-3.2-34.5,0-50.3C1656,661.2,1663.8,672.3,1662.7,681.1z"/>
		<path class="st0" d="M1498.4,681.1h-2.2v6.7h2.2c0-13.2,0-20.3,0-33.5C1498.4,661.2,1498.4,672.1,1498.4,681.1z"/>
		<rect x="854" y="654.4" class="st0" width="2.2" height="8.4"/>
		<path class="st0" d="M231.3,664.4l2.2,1.7c-4.3,2-1.1,5.9,0,8.4c5.8-6.9-3-12.4,0-20.1C229.4,656.7,232.2,661.1,231.3,664.4z"/>
		<path class="st0" d="M1712.4,697.9c11.9-2.7,4.3-14.4,6.5-21.8l-2.2,1.7c-7.4-6.7,5.2-13.4-2.2-20.1L1712.4,697.9z"/>
		<path class="st0" d="M1135.1,694.6c6.5-12.4-3.2-23.5,0-36.9C1135.1,667.9,1135.1,682.2,1135.1,694.6z"/>
		<path class="st0" d="M1632.4,662.7c4.1,1.2,1.3,4.4,2.2,6.7c7.4-3.4-5.2-6.7,2.2-10.1L1632.4,662.7z"/>
		<polygon class="st0" points="1303.8,669.4 1308.1,659.4 1303.8,667.8 		"/>
		<path class="st0" d="M573,699.6c8.9-14.4-7.8-24.8-2.2-40.2L573,699.6z"/>
		<path class="st0" d="M1368.6,661.1c-0.9,5.2,0.9,6.9,6.5,8.4C1370.8,667.3,1376.2,660.6,1368.6,661.1z"/>
		<polygon class="st0" points="1316.7,667.8 1318.9,661.1 1316.7,666.1 		"/>
		<path class="st0" d="M1109.2,662.7c1.1,6.9-1.9,18.8,2.2,26.8c-1.1,1-3,1.8-2.2,3.4h2.2c-6.5-10.1,3.2-19.1,0-30.2H1109.2z"/>
		<path class="st0" d="M916.7,666.1l2.2,1.7l-2.2,1.7l2.2-6.7C917.8,663.7,915.9,664.6,916.7,666.1z"/>
		<polygon class="st0" points="371.9,677.8 369.7,662.7 367.6,674.5 		"/>
		<path class="st0" d="M1424.9,692.9l2.2,1.7c-0.9-7.7-1.3-15.7-2.2-23.5c3.2-1.3,3.2-5.5,0-6.7
			C1424.9,671.8,1424.9,683.5,1424.9,692.9z"/>
		<path class="st0" d="M1448.6,666.1c0,1.9-0.6,4,2.2,5l2.2-5H1448.6z"/>
		<path class="st0" d="M1327.6,666.1c4.1,1.7,1.3,5.7,2.2,8.4C1335.3,671.8,1328.4,667.3,1327.6,666.1z"/>
		<rect x="908.1" y="666.1" class="st0" width="2.2" height="6.7"/>
		<path class="st0" d="M1615.1,711.3c5.8-14.7-2.4-30,2.2-43.5C1613.2,679.6,1616,698.9,1615.1,711.3z"/>
		<path class="st0" d="M1602.2,689.5v-21.8C1598.9,674,1598.9,683.2,1602.2,689.5z"/>
		<path class="st0" d="M248.6,674.5c8.9-0.5-0.9-3.8,0-6.7V674.5z"/>
		<path class="st0" d="M1809.7,679.5c0.4,2.3-5.2,4.9,0,6.7c-4.1,1.7-1.3,5.7-2.2,8.4c0-8.4,9.7-17.8,0-25.1
			C1806.5,674.3,1806.7,675.3,1809.7,679.5z"/>
		<polygon class="st0" points="1779.4,677.8 1781.6,669.4 1779.4,671.1 		"/>
		<path class="st0" d="M1533,669.4l2.2,21.8L1533,669.4z"/>
		<path class="st0" d="M1457.3,677.8c5.2-1.8-0.7-4.4,0-6.7V677.8z"/>
		<path class="st0" d="M1338.4,674.5c4.1,1.2,1.3,4.4,2.2,6.7h2.2v-10h-2.2C1341.4,672.6,1339.5,673.4,1338.4,674.5z"/>
		<path class="st0" d="M927.6,696.2l2.2,1.7v-26.8C923,677.8,933.8,688,927.6,696.2z"/>
		<polygon class="st0" points="1695.1,684.5 1695.1,672.8 1693,682.8 		"/>
		<polygon class="st0" points="1377.3,679.5 1379.4,672.8 1377.3,674.5 		"/>
		<path class="st0" d="M1485.4,677.8l2.2,1.7c-1.1,1-3,1.8-2.2,3.4l2.2,1.7v-10.1C1486.5,675.5,1484.5,676.3,1485.4,677.8z"/>
		<path class="st0" d="M1437.8,689.5c4.5,2,8.9,7.7,2.2,11.7v1.7c-1.1-8,20.5-15.8,6.5-25.1c-2.2,1-3.2,4-6.5,3.3
			c-5.6-1.8,2.6-3.5,0-6.7C1432.6,679.5,1448.4,687,1437.8,689.5z"/>
		<path class="st0" d="M717.8,679.5c-7.8,2.7-2.8,9.4-6.5,13.4l2.2,1.7c6.3-3.5,10-14.9,2.2-20.1C715.7,676.3,715,678.5,717.8,679.5
			z"/>
		<path class="st0" d="M382.7,676.1l-2.2-1.7v5l6.5-5C385.7,675.3,384.6,676.8,382.7,676.1z"/>
		<polygon class="st0" points="921.1,686.2 916.7,676.1 914.6,681.1 		"/>
		<path class="st0" d="M1909.2,677.8c7.8,2.4,3,9.1,4.3,13.4l2.2-13.4H1909.2z"/>
		<path class="st0" d="M1574,692.9c4.1-3.9-2.2-8.4,0-13.4V692.9z"/>
		<path class="st0" d="M1087.6,687.9c-4.1,1.2-1.3,4.4-2.2,6.7c6.5-4.4-3.2-8,0-13.4C1086.3,683.5,1083.5,686.5,1087.6,687.9z"/>
		<polygon class="st0" points="1896.2,696.2 1900.5,682.8 1896.2,689.5 		"/>
		<rect x="261.6" y="682.8" class="st0" width="2.2" height="8.4"/>
		<path class="st0" d="M1178.4,691.2l2.2,1.7v-8.4C1180.8,687,1177.1,688.2,1178.4,691.2z"/>
		<path class="st0" d="M1407.6,687.9c4.1,1.7,1.3,5.7,2.2,8.4v-10.1L1407.6,687.9z"/>
		<path class="st0" d="M1027,733.1c4.1,6.7,1.3,17.8,2.2,23.4l2.2-28.5c-11-4.9,3.5-14.4-4.3-21.8c3.2-5.7,3.2-14.4,0-20.1
			C1027,699.8,1027,717.3,1027,733.1z"/>
		<path class="st0" d="M1061.6,697.9v-10.1C1056.4,691.2,1063.1,693.7,1061.6,697.9z"/>
		<path class="st0" d="M1048.6,691.2c2.4,1.8,5.6,3.5,4.3,6.7c5.6-2.7-1.3-5.7-2.2-8.4L1048.6,691.2z"/>
		<path class="st0" d="M518.9,718l2.2,5c3.2-5-6.5-17.7,0-26.8l-2.2-6.7C516.1,697.9,520.2,710,518.9,718z"/>
		<path class="st0" d="M1496.2,708c0-1.8-0.7-4,2.2-5h2.2l-2.2-11.7C1492.8,696.2,1502.7,702.8,1496.2,708z"/>
		<rect x="936.2" y="691.2" class="st0" width="2.2" height="13.4"/>
		<polygon class="st0" points="1697.3,702.9 1695.1,692.9 1697.3,696.2 		"/>
		<path class="st0" d="M1394.6,702.9l2.2,1.7c-3.5,4.2,6.5,17.6-8.6,16.7c-1.9,4.2-7.4,12.6-2.2,18.4c-0.2-7.7-0.9-16.9,8.6-20.1
			h4.3v-26.8C1393.5,694.9,1394.8,699.1,1394.6,702.9z"/>
		<polygon class="st0" points="1318.9,699.6 1321.1,692.9 1318.9,692.9 		"/>
		<path class="st0" d="M1169.7,706.3c3.2-3.4,3.2-10.1,0-13.4C1173.8,696.6,1167.6,701.3,1169.7,706.3z"/>
		<path class="st0" d="M1329.7,726.4c9.5-4-0.9-14.4,8.7-18.4l2.2-13.4C1343.6,708.8,1326.7,712.1,1329.7,726.4z"/>
		<path class="st0" d="M157.8,708h2.2c-4.1-4.3,1.3-9.7-2.2-13.4C157.8,696.9,157.8,703.6,157.8,708z"/>
		<path class="st0" d="M1597.8,699.6c2.6,1,2.2,3.2,2.2,5h2.2v-8.4h-2.2C1600.9,697.7,1598.9,698.6,1597.8,699.6z"/>
		<path class="st0" d="M1450.8,696.2c0,1.8-0.6,4,2.2,5c-1.1,1-3,1.8-2.2,3.3l2.2-8.4H1450.8z"/>
		<path class="st0" d="M1714.6,713c2.6,1,2.2,3.2,2.2,5h2.2c-6.5-6.7,3.2-12.4,0-20.1C1718.7,703.3,1720,709.1,1714.6,713z"/>
		<path class="st0" d="M1565.4,780c-4.1-21.1-1.3-38.2-2.2-60.3l2.2-1.7c-7.4-2.7,5.2-5.7-2.2-8.4c4.3-3.4-0.9-8.2-2.2-11.7
			l2.2,82.1H1565.4z"/>
		<path class="st0" d="M1133,697.9l2.2,16.8L1133,697.9z"/>
		<path class="st0" d="M142.7,706.3l2.2,1.7v-10C140.8,698.1,143.6,703.6,142.7,706.3z"/>
		<polygon class="st0" points="1675.7,708 1677.8,699.6 1673.5,706.3 		"/>
		<path class="st0" d="M1042.2,746.5l2.2,33.5c0.2-1.9,9.5-7.5,0-10.1c4.1-8,1.3-19.9,2.2-26.8c-7.4-4.4,4.5-6.9,2.2-11.7
			c-1.3-6.7-7.1-14.2-4.3-20.1c-5.6-3.4,4.3-8.2-2.2-11.7C1045.4,716.3,1035.7,732.9,1042.2,746.5z"/>
		<path class="st0" d="M981.6,704.6c4.1,0.8,3,7.5,10.8,5C990.7,708,988.3,698.7,981.6,704.6z"/>
		<path class="st0" d="M575.1,729.7c-2.4,17.8,4.5,30.3,2.2,50.3h2.2c-0.9-2.7,1.9-6.7-2.2-8.4l2.2-1.7l-4.3-67
			C578.4,713,568.6,720.7,575.1,729.7z"/>
		<path class="st0" d="M173,702.9c2.2,3.2,4.8,6,4.3,10.1h2.2C177.3,709.6,175.1,704.8,173,702.9z"/>
		<polygon class="st0" points="1420.5,711.3 1420.5,704.6 1418.4,704.6 		"/>
		<path class="st0" d="M1383.8,713l-2.2-8.4C1376,707.3,1382.9,710.3,1383.8,713z"/>
		<polygon class="st0" points="1682.2,719.7 1682.2,706.3 1680,714.7 		"/>
		<path class="st0" d="M1016.2,744.8c1.1-4,1.3-8.2,4.3-11.7l-2.2-1.7c3.2-6.7-6.5-15.7,0-23.5l-2.2-1.7
			C1014,719.7,1020.3,732.6,1016.2,744.8z"/>
		<polygon class="st0" points="1003.2,714.7 1005.4,706.3 1003.2,708 		"/>
		<path class="st0" d="M929.7,709.6c0,2.3,0,9,0,13.4c1.1-3.9-0.7-11.1,0-16.7l-2.2,1.7L929.7,709.6z"/>
		<rect x="41.1" y="708" class="st0" width="2.2" height="13.4"/>
		<polygon class="st0" points="1442.2,718 1442.2,709.6 1437.8,713 		"/>
		<polygon class="st0" points="1085.4,719.7 1087.6,713 1085.4,713 		"/>
		<polygon class="st0" points="938.4,719.7 940.5,713 938.4,713 		"/>
		<path class="st0" d="M1509.2,733.1c1.3-0.8,2.4-2.3,4.3-1.7c5.6,4-1.3,7.7-2.2,11.7l2.2,1.7c6.9-5.9-5.2-13.9,4.3-18.4
			c4.8,4.4,9.1,11.2,4.3,16.7c5.2-5.2-0.6-11.1,0-16.7l-6.5-5l-4.3,3.3c-7.6-2.5-1.1-5.9-2.2-10
			C1509.2,720.7,1499.5,728.1,1509.2,733.1z"/>
		<path class="st0" d="M1249.7,719.7l-4.3-3.4c2.6,2.7,2.2,6.5,2.2,10.1l-6.5,5c2.6,1,2.2,3.2,2.2,5l6.5-5l2.2,1.7
			c0.9,3.4-1.9-4.4,2.2-5c-1.1-1-3-1.8-2.2-3.4l2.2-1.7c-4.3-2.2-1.1-5.9,0-8.4C1254.9,717.2,1251,718,1249.7,719.7z"/>
		<path class="st0" d="M1496.2,719.7c-0.7,4.4,2.2,9.9,4.3,15.1c-0.9-2.7,1.9-6.7-2.2-8.4c5.8-3.2-1.9-6,0-10.1
			C1499.2,717.8,1497.3,718.7,1496.2,719.7z"/>
		<path class="st0" d="M1407.6,738.1l2.2,1.7c1.3,2.7-3.5-8,4.3-6.7l-2.2-15.1C1404.1,724.7,1418.6,732.4,1407.6,738.1z"/>
		<path class="st0" d="M1003.2,718c-0.7,4,5.2,8.2,0,11.7c7.3,3.4-5.2,6.7,2.2,10l-2.2,1.7c5.2-6.9,0.9-13.9,2.2-23.5H1003.2z"/>
		<path class="st0" d="M144.9,726.4c4.3-3.5-2.2-4.2,0-8.4V726.4z"/>
		<path class="st0" d="M1535.1,731.4c-3.2-5,6.5-7.7,0-11.7V731.4z"/>
		<polygon class="st0" points="1682.2,734.8 1680,723 1680,733.1 		"/>
		<path class="st0" d="M1398.9,736.4c2.6-5-1.3-6.4,0-11.7C1393.3,728.2,1401.5,731.6,1398.9,736.4z"/>
		<path class="st0" d="M1085.4,733.1c2.6-1,2.2-3.2,2.2-5l-2.2-1.7l2.2-1.7C1083.5,724.9,1086.3,730.4,1085.4,733.1z"/>
		<polygon class="st0" points="62.7,733.1 60.5,724.7 60.5,733.1 		"/>
		<rect x="41.1" y="724.7" class="st0" width="2.2" height="6.7"/>
		<path class="st0" d="M1552.4,731.4c0.9,4-1.9-3.3,2.2-3.3l-8.6-1.7L1552.4,731.4z"/>
		<path class="st0" d="M1217.3,738.1c5.6-2.2,5.8,3.2,8.7,5c1.9,6.5-8.2,5-10.8,10.1l-2.2-1.7l6.5,15.1l4.3-5
			c-1.9,0.7-3-0.8-4.3-1.7l2.2-1.7c-2.4,0-5.2,0.3-6.5-1.7c0-3,4.3-4.4,6.5-6.7c3.2-0.7,4.3,2.3,6.5,3.4c-1.1,1-3,1.8-2.2,3.3
			l6.5-16.8c-11,0.3-8.6-9.4-15.1-13.4V738.1z"/>
		<polygon class="st0" points="1137.3,736.4 1137.3,726.4 1135.1,728.1 		"/>
		<path class="st0" d="M1427,739.8l2.2,1.7v-8.4C1425.1,734.3,1427.9,737.4,1427,739.8z"/>
		<path class="st0" d="M1310.3,746.5h2.2v-11.7h-2.2c0.9,2.5-3,3.4-4.3,5c-5.2,0.3-4.3-4-4.3-6.7
			C1298.4,741,1306.4,742.3,1310.3,746.5z"/>
		<rect x="1063.8" y="733.1" class="st0" width="2.2" height="10"/>
		<polygon class="st0" points="1111.3,741.5 1111.3,734.8 1109.2,736.4 		"/>
		<rect x="41.1" y="736.4" class="st0" width="2.2" height="16.8"/>
		<polygon class="st0" points="1167.6,744.8 1165.4,738.1 1165.4,744.8 		"/>
		<path class="st0" d="M1128.6,749.8c-2.8-0.5,2.6-7.2-2.2-11.7C1133.8,742.1,1121.3,745.8,1128.6,749.8z"/>
		<path class="st0" d="M1714.6,739.8l2.2,6.7L1714.6,739.8z"/>
		<path class="st0" d="M936.2,748.2c3.2,0.7,4.3-2.3,6.5-3.3l-4.3-5C942.7,743.1,937.5,745,936.2,748.2z"/>
		<path class="st0" d="M1632.4,741.5c4.1,1.2,1.3,4.3,2.2,6.7C1640.2,745.8,1633.3,742.3,1632.4,741.5z"/>
		<polygon class="st0" points="1141.6,758.2 1139.5,741.5 1137.3,741.5 		"/>
		<path class="st0" d="M1055.1,776.6c3-0.7,6.9,1.5,8.6-1.7c2.6,1,2.2,3.2,2.2,5c0.9-3.4-1.9-7.7,2.2-10.1l-2.2,1.7
			c-7.1-8.9-13.6-19.8-8.6-30.2L1055.1,776.6z"/>
		<path class="st0" d="M899.5,751.5c4.3-3.5-2.2-4.2,0-8.4V751.5z"/>
		<path class="st0" d="M175.1,753.2c-3.2,2.8-3.2,8.7,0,11.7c0.9-5.7-2-12.2,2.2-16.8l-6.5-5C168.9,747.5,173.8,749.8,175.1,753.2z"
			/>
		<rect y="743.1" class="st0" width="2.2" height="15.1"/>
		<path class="st0" d="M1152.4,775c-3-11.1,5.8-19.9,0-30.2V775z"/>
		<path class="st0" d="M951.4,744.8c-1.9,5.4,3,9,4.3,13.4h2.2c-7.8-2.3-3-9-4.3-13.4H951.4z"/>
		<path class="st0" d="M720,768.3h2.2v-23.4H720C720,750.5,720,760.6,720,768.3z"/>
		<path class="st0" d="M1524.3,776.6c-2.4,2.7,4.5-5.7,2.2-10.1c0.4-7.2-3.9-14.7-2.2-20.1C1517.8,756.5,1527.6,765.6,1524.3,776.6z
			"/>
		<path class="st0" d="M1658.4,780l2.2-31.8C1662.7,757.7,1656,768.3,1658.4,780z"/>
		<path class="st0" d="M1574,754.9h-2.2c2.2,3.2,4.8,6,4.3,10h2.2v-16.8h-2.2C1575.3,750.5,1578.2,753.5,1574,754.9z"/>
		<polygon class="st0" points="1318.9,751.5 1325.4,748.2 1318.9,749.8 		"/>
		<path class="st0" d="M1498.4,754.9c2-0.7,3,0.8,4.3,1.7c0.9,2.5-3,3.4-4.3,5c-5.4,0,2.2,0.3,2.2-1.7l2.2,1.7l4.3-3.4
			c-3.9-2.2-5-5-4.3-8.4L1498.4,754.9z"/>
		<path class="st0" d="M1377.3,754.9c2-0.7,3,0.8,4.3,1.7l2.2-6.7L1377.3,754.9z"/>
		<path class="st0" d="M1165.4,761.6c5.2-3.5-0.6-7.7,0-11.7C1168,754.7,1159.8,758.1,1165.4,761.6z"/>
		<path class="st0" d="M1007.6,780c5.2-4-1.1-13.6,2.2-18.4c-4.1-1.7-1.3-5.7-2.2-8.4l4.3-3.4C997.6,757.7,1012.1,771,1007.6,780z"
			/>
		<path class="st0" d="M988.1,761.6c-2.2-4.2,4.3-4.9,0-8.4V761.6z"/>
		<path class="st0" d="M1238.9,761.6c2-0.7,3,0.8,4.3,1.7v5l2.2-13.4L1238.9,761.6z"/>
		<path class="st0" d="M1398.9,764.9c-3.2-3.9,6.5-5.7,0-8.4V764.9z"/>
		<rect x="1102.7" y="756.5" class="st0" width="2.2" height="8.4"/>
		<path class="st0" d="M150.3,756.7l-7.6,23.3L150.3,756.7z"/>
		<path class="st0" d="M41.1,759.9c0,1.8-0.6,4,2.2,5c0,2.8,0,10.1,0,15.1c-2.2-6.4,4.5-13.4,2.2-21.8
			C43.5,757.5,42.4,759.1,41.1,759.9z"/>
		<polygon class="st0" points="32.4,766.6 30.3,758.2 30.3,766.6 		"/>
		<polygon class="st0" points="1552.4,778.3 1550.3,763.2 1552.4,775 		"/>
		<path class="st0" d="M951.4,780l2.2-16.8C946.2,768.9,958.7,774.3,951.4,780z"/>
		<rect x="1072.4" y="766.6" class="st0" width="2.2" height="8.4"/>
		<path class="st0" d="M780.5,775l2.2-8.4C775.3,769.3,787.9,772.3,780.5,775z"/>
		<rect x="1102.7" y="768.3" class="st0" width="2.2" height="8.4"/>
		<polygon class="st0" points="867,775 864.9,768.3 864.9,775 		"/>
		<polygon class="st0" points="1578.4,780 1576.2,769.9 1576.2,780 		"/>
		<polygon class="st0" points="1182.7,776.6 1184.9,769.9 1182.7,771.6 		"/>
		<polygon class="st0" points="1398.9,776.6 1398.9,771.6 1396.8,771.6 		"/>
		<path class="st0" d="M1219.5,773.3c4.1,1.2,1.3,4.4,2.2,6.7c2.6-0.2,6.7-1.5,6.5-3.4l-2.2,1.7l-4.3-6.7L1219.5,773.3z"/>
		<path class="st0" d="M2.2,771.6L0,780L2.2,771.6z"/>
	</g>
</g>
</svg>
